<?xml version="1.0" encoding="iso-8859-1"?>
<!-- Generator: Adobe Illustrator 22.1.0, SVG Export Plug-In . SVG Version: 6.00 Build 0)  -->
<svg xmlns="http://www.w3.org/2000/svg" xmlns:xlink="http://www.w3.org/1999/xlink" version="1.1" id="Layer_3" x="0px" y="0px" viewBox="0 0 64 64" style="enable-background:new 0 0 64 64;" xml:space="preserve" width="512" height="512">
<g>
	<path style="fill:#919191;" d="M23,28l-10,3l1.516,1.705C14.516,32.705,7,37,7,37c-2.761,0-5,2.238-5,5C2,44.703,4.297,47,7,47   c2.761,0,5-2.239,5-5l9-2l-2.881,16.495C18.04,56.831,18,57.174,18,57.519v0.012C18,59.999,20.001,62,22.469,62h0   c1.57,0,3.025-0.824,3.833-2.17L30,54h4l3.698,5.83c0.808,1.346,2.263,2.17,3.833,2.17h0C43.999,62,46,59.999,46,57.531v-0.012   c0-0.345-0.04-0.688-0.119-1.024L43,40l9,2c0,2.761,2.238,5,5,5c2.703,0,5.001-2.297,5-5c0-2.761-2.239-5-5-5l-7.516-4.295L51,31   l-10-3"/>
	<path style="fill:#B9B9B9;" d="M41,28l10,3l-8,9l2.881,16.495C45.96,56.831,46,57.174,46,57.519v0.012   C46,59.999,43.999,62,41.531,62h0c-1.57,0-3.025-0.824-3.833-2.17L34,54h-4l-3.698,5.83C25.494,61.176,24.039,62,22.469,62h0   C20.001,62,18,59.999,18,57.531v-0.012c0-0.345,0.04-0.688,0.119-1.024L21,40l-8-9l10-3"/>
	<path style="fill:#919191;" d="M18.359,55.12l-0.24,1.375C18.04,56.831,18,57.174,18,57.519v0.012C18,59.999,20.001,62,22.469,62   c1.57,0,3.025-0.824,3.833-2.17l1.08-1.703L18.359,55.12z"/>
	<path style="fill:#919191;" d="M37.698,59.83c0.808,1.346,2.263,2.17,3.833,2.17C43.999,62,46,59.999,46,57.531v-0.012   c0-0.345-0.04-0.688-0.119-1.024l-0.24-1.375l-9.023,3.008L37.698,59.83z"/>
	<polygon style="fill:#B9B9B9;" points="47.944,41.099 51.156,41.812 55.758,36.29 51.938,34.108  "/>
	<polygon style="fill:#B9B9B9;" points="8.242,36.29 12.844,41.812 16.056,41.099 12.062,34.108  "/>
	<circle style="fill:#919191;" cx="23" cy="50" r="2"/>
	<circle style="fill:#919191;" cx="41" cy="50" r="2"/>
	<circle style="fill:#919191;" cx="23" cy="37" r="3"/>
	<circle style="fill:#919191;" cx="41" cy="37" r="3"/>
	<path style="fill:#B9B9B9;" d="M49,13l-2.704-0.541C44.372,6.395,38.701,2,32,2c-6.701,0-12.372,4.395-14.296,10.459L15,13l1,9   h1.872c2.061,5.822,7.6,10,14.128,10c6.528,0,12.067-4.178,14.128-10H48L49,13z"/>
	<path style="fill:#919191;" d="M40,9l-4-2l-2,4h-4l-2-4l-4,2l-4,6l2,6v7.153c1.647,1.482,3.62,2.602,5.804,3.239L30,27h4   l2.196,4.392c2.184-0.638,4.157-1.757,5.804-3.239V21l2-6L40,9z"/>
	<path style="fill:#919191;" d="M27.707,44.707l3-3l-1.414-1.414L26.586,43H21v2h6C27.266,45,27.52,44.895,27.707,44.707z"/>
	<path style="fill:#919191;" d="M37,45h6v-2h-5.586l-2.707-2.707l-1.414,1.414l3,3C36.48,44.895,36.734,45,37,45z"/>
	<path style="fill:#919191;" d="M41,47c-1.302,0-2.402,0.839-2.816,2H36c-0.379,0-0.725,0.214-0.895,0.553L32.881,54H34l0.625,0.985   L36.618,51h1.566c0.414,1.161,1.514,2,2.816,2c1.654,0,3-1.346,3-3S42.654,47,41,47z M41,51c-0.552,0-1-0.448-1-1s0.448-1,1-1   s1,0.448,1,1S41.552,51,41,51z"/>
	<path style="fill:#919191;" d="M31.119,54l-2.224-4.447C28.725,49.214,28.379,49,28,49h-2.184c-0.414-1.161-1.514-2-2.816-2   c-1.654,0-3,1.346-3,3s1.346,3,3,3c1.302,0,2.402-0.839,2.816-2h1.566l1.993,3.985L30,54H31.119z M23,51c-0.552,0-1-0.448-1-1   s0.448-1,1-1s1,0.448,1,1S23.552,51,23,51z"/>
</g>
</svg>
