<?xml version="1.0" encoding="iso-8859-1"?>
<!-- Generator: Adobe Illustrator 22.1.0, SVG Export Plug-In . SVG Version: 6.00 Build 0)  -->
<svg xmlns="http://www.w3.org/2000/svg" xmlns:xlink="http://www.w3.org/1999/xlink" version="1.1" id="Layer_3" x="0px" y="0px" viewBox="0 0 64 64" style="enable-background:new 0 0 64 64;" xml:space="preserve" width="512" height="512">
<g>
	<path style="fill:#566164;" d="M42.12,28.072C39.452,30.512,35.9,32,32,32c-3.9,0-7.452-1.488-10.12-3.928L7,37   c-2.761,0-5,2.238-5,5C2,44.703,4.297,47,7,47c2.761,0,5-2.239,5-5l10-4l-3.881,18.495C18.04,56.831,18,57.174,18,57.519v0.012   C18,59.999,20.001,62,22.469,62h0c1.57,0,3.025-0.824,3.833-2.17L30,53h4l3.698,6.83c0.808,1.346,2.263,2.17,3.833,2.17h0   C43.999,62,46,59.999,46,57.531v-0.012c0-0.345-0.04-0.688-0.119-1.024L42,38l10,4c0,2.761,2.238,5,5,5c2.703,0,5.001-2.297,5-5   c0-2.761-2.239-5-5-5L42.12,28.072z"/>
	<path style="fill:#919191;" d="M12.854,41.659l-2.785-6.499L7,37c-2.761,0-5,2.238-5,5C2,44.703,4.297,47,7,47c2.761,0,5-2.239,5-5   L12.854,41.659z"/>
	<path style="fill:#919191;" d="M57,37l-3.068-1.841l-2.785,6.499L52,42c0,2.761,2.238,5,5,5c2.703,0,5.001-2.297,5-5   C62,39.238,59.761,37,57,37z"/>
	<path style="fill:#3B4546;" d="M18.666,53.889l-0.547,2.606C18.04,56.831,18,57.174,18,57.519v0.012C18,59.999,20.001,62,22.469,62   c1.57,0,3.025-0.824,3.833-2.17l1.558-2.877L18.666,53.889z"/>
	<path style="fill:#3B4546;" d="M37.698,59.83c0.808,1.346,2.263,2.17,3.832,2.17h0C43.999,62,46,59.999,46,57.531v-0.012   c0-0.345-0.04-0.688-0.119-1.024l-0.547-2.606l-9.194,3.065L37.698,59.83z"/>
	<polygon style="fill:#D2A95C;" points="47,40 51.146,41.659 53.932,35.159 50.068,32.841  "/>
	<polygon style="fill:#D2A95C;" points="12.854,41.659 17,40 13.932,32.841 10.068,35.159  "/>
	<path style="fill:#CA5057;" d="M20.333,29l1.547-0.928C24.548,30.512,28.1,32,32,32c3.9,0,7.452-1.488,10.12-3.928   c0,0,1.547,0.928,1.547,0.928h0c4.013,0,7.819-1.783,10.388-4.865L55,23l-3.459-0.432C48.947,22.243,47,20.038,47,17.424V17h0   c0-8.837-7.641-15.889-16.677-14.909C22.652,2.923,17,9.707,17,17.424v0c0,2.614-1.947,4.82-4.541,5.144L9,23l0.945,1.135   C12.515,27.217,16.32,29,20.333,29L20.333,29z"/>
	<path style="fill:#DC6068;" d="M20.333,29l1.547-0.928C24.548,30.512,28.1,32,32,32s7.452-1.488,10.12-3.928   c0,0,1.547,0.928,1.547,0.928h0c3.706,0,7.223-1.535,9.764-4.196l-1.89-0.236C48.947,24.243,47,22.038,47,19.424V19   c0-8.837-7.641-15.889-16.677-14.909C22.652,4.923,17,11.707,17,19.424c0,2.614-1.947,4.82-4.541,5.144l-1.89,0.236   C13.111,27.465,16.627,29,20.333,29z"/>
	<path style="fill:#D8C4A9;" d="M42,28.181V15h-3c-3.866,0-7-3.134-7-7v0v0c0,3.866-3.134,7-7,7h-3c0,0,0,13.181,0,13.181   C24.654,30.556,28.158,32,32,32C35.842,32,39.346,30.556,42,28.181z"/>
	<path style="fill:#3B4546;" d="M27.211,31.203c-0.689-0.232-1.362-0.5-2.003-0.826l-2.916,2.916   c-0.128,0.128-0.219,0.289-0.263,0.465l-1,4c-0.053,0.212-0.018,0.418,0.058,0.607L22,38l-0.205,0.979l3.349,0.837l1.153,5.765   l1.961-0.393l-1.277-6.385c-0.076-0.379-0.363-0.68-0.738-0.773l-3.029-0.758l0.69-2.761L27.211,31.203z"/>
	<path style="fill:#3B4546;" d="M41.97,33.758c-0.044-0.176-0.135-0.337-0.263-0.465l-2.916-2.916   c-0.64,0.326-1.313,0.593-2.003,0.826l3.308,3.309l0.69,2.761l-3.029,0.758c-0.375,0.094-0.662,0.395-0.738,0.773l-1.277,6.385   l1.961,0.393l1.153-5.765l3.349-0.837L42,38l0.912,0.365c0.076-0.189,0.111-0.395,0.058-0.607L41.97,33.758z"/>
	<path style="fill:#3B4546;" d="M32,32c-0.337,0-0.668-0.026-1-0.048V44h2V31.952C32.668,31.974,32.337,32,32,32z"/>
	<polygon style="fill:#EDD07A;" points="11.171,37.731 11.966,39.587 15.829,37.269 15.034,35.413  "/>
	<polygon style="fill:#EDD07A;" points="48.171,37.269 52.034,39.587 52.829,37.731 48.966,35.413  "/>
	<path style="fill:#B8A490;" d="M28.207,19.021l-3.964-0.991l-0.484,1.94l1.714,0.429C25.177,20.863,25,21.41,25,22   c0,1.654,1.346,3,3,3s3-1.346,3-3C31,20.416,29.763,19.129,28.207,19.021z M28,23c-0.552,0-1-0.449-1-1s0.448-1,1-1s1,0.449,1,1   S28.552,23,28,23z"/>
	<path style="fill:#B8A490;" d="M40.242,19.97l-0.484-1.94l-3.964,0.991C34.237,19.129,33,20.416,33,22c0,1.654,1.346,3,3,3   s3-1.346,3-3c0-0.59-0.177-1.137-0.472-1.601L40.242,19.97z M36,23c-0.552,0-1-0.449-1-1s0.448-1,1-1s1,0.449,1,1S36.552,23,36,23z   "/>
	<g>
		<rect x="28" y="27" style="fill:#B8A490;" width="8" height="2"/>
	</g>
	<circle style="fill:#D2A95C;" cx="37" cy="46" r="2"/>
	<circle style="fill:#D2A95C;" cx="27" cy="46" r="2"/>
	<circle style="fill:#EDD07A;" cx="32" cy="46" r="3"/>
	<circle style="fill:#EDD07A;" cx="41" cy="45" r="2"/>
	<circle style="fill:#EDD07A;" cx="23" cy="45" r="2"/>
	<circle style="fill:#CA5057;" cx="32" cy="46" r="1"/>
</g>
</svg>
