<?xml version="1.0" encoding="iso-8859-1"?>
<!-- Generator: Adobe Illustrator 22.1.0, SVG Export Plug-In . SVG Version: 6.00 Build 0)  -->
<svg xmlns="http://www.w3.org/2000/svg" xmlns:xlink="http://www.w3.org/1999/xlink" version="1.1" id="Layer_3" x="0px" y="0px" viewBox="0 0 64 64" style="enable-background:new 0 0 64 64;" xml:space="preserve" width="512" height="512">
<g>
	<path style="fill:#2B62A1;" d="M42,28l15,9c2.761,0,5,2.238,5,5c0,2.703-2.297,5.001-5,5c-2.761,0-5-2.239-5-5l-10-2l3.881,16.495   C45.96,56.831,46,57.174,46,57.519v0.012C46,59.999,43.999,62,41.531,62h0c-1.57,0-3.025-0.824-3.833-2.17L35,55h-6l-2.698,4.83   C25.494,61.176,24.039,62,22.469,62h0C20.001,62,18,59.999,18,57.531v-0.012c0-0.345,0.04-0.688,0.119-1.024L22,40l-10,2   c0,2.761-2.238,5-5,5C4.297,47,2,44.703,2,42c0-2.761,2.239-5,5-5l15-9"/>
	<polygon style="fill:#B9B9B9;" points="19.882,49 18.526,54.763 26.817,58.908 29,55 27,49  "/>
	<polygon style="fill:#B9B9B9;" points="44.118,49 45.474,54.763 37.183,58.908 35,55 37,49  "/>
	<path style="fill:#B9B9B9;" d="M10.068,35.159L7,37c-2.761,0-5,2.238-5,5C2,44.703,4.297,47,7,47c2.761,0,5-2.239,5-5l0.921-0.184   L10.068,35.159z"/>
	<polygon style="fill:#B9B9B9;" points="20.966,28.621 17,31 18.923,40.615 22,40  "/>
	<polygon style="fill:#DC6068;" points="19.882,49 29,49 29,45 20.824,45  "/>
	<rect x="29" y="45" style="fill:#B9B9B9;" width="9" height="4"/>
	<polygon style="fill:#B9B9B9;" points="32,40 28,42 29,39 27,36 30,36 32,32 34,36 37,36 35,39 36,42  "/>
	<circle style="fill:#2B62A1;" cx="32" cy="17" r="15"/>
	<ellipse style="fill:#4B88BA;" cx="31" cy="17" rx="14" ry="14.95"/>
	<path style="fill:#D8C4A9;" d="M32,24c-3.727,0-6.925,2.266-8.292,5.496C26.084,31.076,28.933,32,32,32   c3.067,0,5.916-0.925,8.292-2.504C38.926,26.266,35.727,24,32,24z"/>
	<path style="fill:#D8C4A9;" d="M29,17c0,2.761-1.791,5-4,5s-4-2.239-4-5c0-1.156,0.314-2.221,0.841-3.068l0.001,0L29,17z"/>
	<path style="fill:#D8C4A9;" d="M35,17c0,2.761,1.791,5,4,5s4-2.239,4-5c0-1.156-0.314-2.221-0.841-3.068l-0.001,0L35,17z"/>
	<g>
		<path style="fill:#919191;" d="M25.5,20c-0.827,0-1.5-0.673-1.5-1.5s0.673-1.5,1.5-1.5s1.5,0.673,1.5,1.5S26.327,20,25.5,20z"/>
	</g>
	<g>
		<path style="fill:#919191;" d="M38.5,20c-0.827,0-1.5-0.673-1.5-1.5s0.673-1.5,1.5-1.5s1.5,0.673,1.5,1.5S39.327,20,38.5,20z"/>
	</g>
	<g>
		<rect x="29" y="27" style="fill:#919191;" width="6" height="2"/>
	</g>
	<path style="fill:#FFFFFF;" d="M36.063,14.351l1.873-0.702l-3-8C34.79,5.259,34.417,5,34,5h-4c-0.417,0-0.79,0.259-0.937,0.649   l-3,8l1.873,0.702L28.818,12h6.364L36.063,14.351z M29.568,10l1.125-3h2.614l1.125,3H29.568z"/>
	<polygon style="fill:#DC6068;" points="44,49 34.882,49 34.882,45 43.059,45  "/>
	<circle style="fill:#CA5057;" cx="49" cy="44" r="13"/>
	<circle style="fill:#EFEFEF;" cx="49" cy="44" r="9"/>
	<circle style="fill:#2B62A1;" cx="49" cy="44" r="6"/>
	<polygon style="fill:#EFEFEF;" points="49,46 45,48 46,45 44,42 47,42 49,38 51,42 54,42 52,45 53,48  "/>
</g>
</svg>
