<?xml version="1.0" encoding="iso-8859-1"?>
<!-- Generator: Adobe Illustrator 22.1.0, SVG Export Plug-In . SVG Version: 6.00 Build 0)  -->
<svg xmlns="http://www.w3.org/2000/svg" xmlns:xlink="http://www.w3.org/1999/xlink" version="1.1" id="Layer_3" x="0px" y="0px" viewBox="0 0 64 64" style="enable-background:new 0 0 64 64;" xml:space="preserve" width="512" height="512">
<g>
	<polyline style="fill:#3B4546;" points="43.345,29.612 59,15 62,19 48,32  "/>
	<polyline style="fill:#566164;" points="43.93,29.89 58.957,16.513 61.274,19.675 48,32  "/>
	<polyline style="fill:#3B4546;" points="20.411,29.383 5,15 2,19 16,32  "/>
	<polyline style="fill:#566164;" points="19.852,30.047 4.99,16.163 2.652,19.605 16,32  "/>
	<polygon style="fill:#3B4546;" points="4.918,21.71 10.008,19.674 8.392,18.166 3.297,20.204  "/>
	<polygon style="fill:#3B4546;" points="8.36,24.906 9.931,26.365 11.901,21.441 10.332,19.977  "/>
	<polygon style="fill:#3B4546;" points="10.658,27.039 12.184,28.456 16.587,25.814 15.066,24.394  "/>
	<polygon style="fill:#3B4546;" points="54.069,26.365 55.639,24.906 53.668,19.977 52.099,21.441  "/>
	<polygon style="fill:#3B4546;" points="51.817,28.456 53.342,27.039 48.935,24.394 47.413,25.814  "/>
	<polygon style="fill:#3B4546;" points="53.992,19.674 59.082,21.71 60.703,20.204 55.608,18.166  "/>
	<path style="fill:#CA5057;" d="M42,28l15,9c2.761,0,5,2.238,5,5c0,2.703-2.297,5.001-5,5c-2.761,0-5-2.239-5-5l-10-2l3.881,16.495   C45.96,56.831,46,57.174,46,57.519v0.012C46,59.999,43.999,62,41.531,62h0c-1.57,0-3.025-0.824-3.833-2.17L35,52h-6l-2.698,7.83   C25.494,61.176,24.039,62,22.469,62h0C20.001,62,18,59.999,18,57.531v-0.012c0-0.345,0.04-0.688,0.119-1.024L22,40l-10,2   c0,2.761-2.238,5-5,5C4.297,47,2,44.703,2,42c0-2.761,2.239-5,5-5l15-9"/>
	<path style="fill:#664C37;" d="M36,39c0,0,9.733-8.76,9.733-8.76l-3.613-2.168c-1.525,1.395-3.34,2.479-5.343,3.151L31,37   l-9.658,5.794l-0.055,0.232l7.22,0.656L36,39z"/>
	<path style="fill:#876440;" d="M42.657,42.794L33,37c0,0-5.777-5.777-5.777-5.777c-2.003-0.673-3.818-1.757-5.343-3.151   l-3.613,2.168L28,39c0,0,7.492,4.683,7.492,4.683l7.22-0.656L42.657,42.794z"/>
	<polygon style="fill:#664C37;" points="37.06,57.978 45.486,54.818 44.614,51.111 36.011,54.934  "/>
	<polygon style="fill:#664C37;" points="27.971,54.986 19.474,50.737 18.513,54.818 26.94,57.978  "/>
	<polygon style="fill:#876440;" points="43.633,46.942 42.712,43.026 32,44 21.288,43.026 20.366,46.942 32,48  "/>
	<polygon style="fill:#664C37;" points="32,45 21.058,44.005 20.366,46.942 32,48 43.633,46.942 42.942,44.005  "/>
	<polygon style="fill:#3B4546;" points="47,41 50.286,41.657 55.111,35.867 51.255,33.553  "/>
	<polygon style="fill:#3B4546;" points="13.714,41.657 17,41 12.745,33.553 8.889,35.867  "/>
	<circle style="fill:#CA5F5B;" cx="32" cy="17" r="15"/>
	<path style="fill:#3B4546;" d="M18.877,9.726C20.034,8.64,21.459,8,23,8c3.866,0,7,4.029,7,9s-3.134,9-7,9   c-1.542,0-2.968-0.641-4.125-1.728l0.002-0.001C17.681,22.117,17,19.638,17,17c0-2.589,0.656-5.024,1.81-7.15L18.877,9.726z"/>
	<path style="fill:#3B4546;" d="M45.121,9.724C43.965,8.64,42.54,8,41,8c-3.866,0-7,4.029-7,9s3.134,9,7,9   c1.54,0,2.965-0.64,4.12-1.724C46.318,22.121,47,19.64,47,17C47,14.36,46.318,11.879,45.121,9.724z"/>
	<path style="fill:#B9B9B9;" d="M29,17c0,2.761-1.791,5-4,5s-4-2.239-4-5c0-1.156,0.314-2.221,0.841-3.068l0.001,0L29,17z"/>
	<path style="fill:#B9B9B9;" d="M35,17c0,2.761,1.791,5,4,5s4-2.239,4-5c0-1.156-0.314-2.221-0.841-3.068l-0.001,0L35,17z"/>
	<g>
		<polygon style="fill:#CA5F5B;" points="24.898,53.449 19.474,50.737 20.366,46.942 27.25,47.568   "/>
	</g>
	<g>
		<polygon style="fill:#CA5F5B;" points="39.14,53.543 36.75,47.568 43.633,46.942 44.614,51.111   "/>
	</g>
	<g>
		<path style="fill:#3B4546;" d="M25.5,20c-0.827,0-1.5-0.673-1.5-1.5s0.673-1.5,1.5-1.5s1.5,0.673,1.5,1.5S26.327,20,25.5,20z"/>
	</g>
	<g>
		<path style="fill:#3B4546;" d="M38.5,20c-0.827,0-1.5-0.673-1.5-1.5s0.673-1.5,1.5-1.5s1.5,0.673,1.5,1.5S39.327,20,38.5,20z"/>
	</g>
	<polygon style="fill:#566164;" points="28,47.636 30,47.818 30,43.818 28,43.636  "/>
	<polygon style="fill:#566164;" points="34,47.818 36,47.636 36,43.636 34,43.818  "/>
</g>
</svg>
