<?xml version="1.0" encoding="iso-8859-1"?>
<!-- Generator: Adobe Illustrator 22.1.0, SVG Export Plug-In . SVG Version: 6.00 Build 0)  -->
<svg xmlns="http://www.w3.org/2000/svg" xmlns:xlink="http://www.w3.org/1999/xlink" version="1.1" id="Layer_3" x="0px" y="0px" viewBox="0 0 64 64" style="enable-background:new 0 0 64 64;" xml:space="preserve" width="512" height="512">
<g>
	<path style="fill:#B8A490;" d="M42,28l15,9c2.761,0,5,2.238,5,5c0,2.703-2.297,5.001-5,5c-2.761,0-5-2.239-5-5l-10-2l3.881,16.495   C45.96,56.831,46,57.174,46,57.519v0.012C46,59.999,43.999,62,41.531,62h0c-1.57,0-3.025-0.824-3.833-2.17L36,55h-8l-1.698,4.83   C25.494,61.176,24.039,62,22.469,62h0C20.001,62,18,59.999,18,57.531v-0.012c0-0.345,0.04-0.688,0.119-1.024L22,40l-10,2   c0,2.761-2.238,5-5,5C4.297,47,2,44.703,2,42c0-2.761,2.239-5,5-5l15-9"/>
	<rect x="25" y="34" style="fill:#792F21;" width="2" height="2"/>
	<rect x="27" y="38" style="fill:#792F21;" width="2" height="2"/>
	<rect x="37" y="34" style="fill:#792F21;" width="2" height="2"/>
	<rect x="35" y="38" style="fill:#792F21;" width="2" height="2"/>
	<rect x="31" y="40" style="fill:#792F21;" width="2" height="2"/>
	<path style="fill:#792F21;" d="M53.909,35.145l-5.269,0.753l0.34-1.702l-1.961-0.393l-0.289,1.444l-1.986-0.993l-0.296-0.592   L45.6,32.8l-1.2-1.6l-0.86,0.645l-1.859-3.718l-1.576,1.32l1.809,3.617L40.4,34.2l1.2,1.6l1.223-0.917l0.282,0.565   c0.097,0.193,0.254,0.351,0.447,0.447l2.771,1.386l-0.305,1.523l1.961,0.393l0.244-1.218l8.405-1.201L53.909,35.145z"/>
	<path style="fill:#792F21;" d="M22.326,28.111l-1.867,3.734L19.6,31.2l-1.2,1.6l1.151,0.863l-0.296,0.592l-1.986,0.993   l-0.289-1.444l-1.961,0.393l0.34,1.702l-5.269-0.753l-2.72,1.632l8.405,1.201l0.244,1.218l1.961-0.393l-0.305-1.523l2.771-1.386   c0.193-0.097,0.351-0.254,0.447-0.447l0.282-0.565L22.4,35.8l1.2-1.6l-1.514-1.136l1.809-3.617L22.326,28.111z"/>
	<polygon style="fill:#566164;" points="43.176,45 20.824,45 19.882,49 44.118,49  "/>
	<polygon style="fill:#919191;" points="45.782,56.073 44.118,49 19.882,49 18.218,56.073 26.636,58.879 28,55 36,55 37.364,58.879     "/>
	<rect x="24" y="45" style="fill:#ABABAB;" width="6" height="4"/>
	<rect x="34" y="45" style="fill:#ABABAB;" width="6" height="4"/>
	<path style="fill:#566164;" d="M18.218,56.073l-0.099,0.422C18.04,56.831,18,57.174,18,57.519v0.012C18,59.999,20.001,62,22.469,62   c1.57,0,3.025-0.824,3.833-2.17l0.334-0.951L18.218,56.073z"/>
	<path style="fill:#566164;" d="M41.531,62C43.999,62,46,59.999,46,57.531v-0.012c0-0.345-0.04-0.688-0.119-1.024l-0.099-0.422   l-8.418,2.806l0.334,0.951C38.506,61.176,39.961,62,41.531,62L41.531,62z"/>
	<path style="fill:#3B4546;" d="M58.716,50c-0.11-0.849-0.195-1.701-0.256-2.557L58,41l-6,1l3,8"/>
	<path style="fill:#B9B9B9;" d="M52,50l6.716,0c0.531,4.115,1.63,8.142,3.268,11.963L62,62l-0.104-0.06   c-4.456-2.546-7.882-6.571-9.684-11.377L52,50z"/>
	<path style="fill:#939FA5;" d="M61.287,60.168c-1.243-3.282-2.122-6.689-2.571-10.168H54l0.211,0.564   C55.642,54.378,58.108,57.686,61.287,60.168z"/>
	<path style="fill:#3B4546;" d="M5.284,50c0.11-0.849,0.195-1.701,0.256-2.557L6,41l6,1l-3,8"/>
	<path style="fill:#B9B9B9;" d="M12,50l-6.716,0c-0.531,4.115-1.63,8.142-3.268,11.963L2,62l0.104-0.06   c4.456-2.546,7.882-6.571,9.684-11.377L12,50z"/>
	<path style="fill:#939FA5;" d="M9.789,50.564L10,50H5.284c-0.449,3.479-1.328,6.886-2.571,10.168   C5.892,57.686,8.358,54.378,9.789,50.564z"/>
	<circle style="fill:#B8A490;" cx="32" cy="17" r="15"/>
	<ellipse style="fill:#D2C3AF;" cx="30.5" cy="17" rx="13.5" ry="14.924"/>
	<circle style="fill:#ABABAB;" cx="28" cy="17" r="2"/>
	<circle style="fill:#ABABAB;" cx="36" cy="17" r="2"/>
	<g>
		<path style="fill:#919191;" d="M35.293,28.707l-0.829-0.829C33.906,27.32,33.133,27,32.343,27h-0.687    c-0.79,0-1.562,0.32-2.121,0.878l-0.829,0.829l-1.414-1.414l0.829-0.829C29.066,25.52,30.321,25,31.657,25h0.687    c1.335,0,2.591,0.52,3.535,1.464l0.829,0.829L35.293,28.707z"/>
	</g>
	<polygon style="fill:#566164;" points="5.653,45.862 10.183,46.846 10.893,44.953 5.797,43.846  "/>
	<polygon style="fill:#566164;" points="53.821,46.856 58.354,45.949 58.21,43.939 53.109,44.958  "/>
	<g>
		<path style="fill:#919191;" d="M28,20c-1.654,0-3-1.346-3-3s1.346-3,3-3s3,1.346,3,3S29.654,20,28,20z M28,16    c-0.551,0-1,0.449-1,1s0.449,1,1,1s1-0.449,1-1S28.551,16,28,16z"/>
	</g>
	<g>
		<path style="fill:#919191;" d="M36,20c-1.654,0-3-1.346-3-3s1.346-3,3-3s3,1.346,3,3S37.654,20,36,20z M36,16    c-0.551,0-1,0.449-1,1s0.449,1,1,1s1-0.449,1-1S36.551,16,36,16z"/>
	</g>
	<g>
		<path style="fill:#792F21;" d="M30,13h-0.877c-2.887,0-5.393-1.957-6.093-4.757l1.94-0.485c0.312,1.246,1.147,2.247,2.238,2.792    C26.43,9.327,26,7.892,26,6.395V5h2v1.395c0,1.922,0.955,3.707,2.555,4.773c0.367,0.245,0.53,0.7,0.402,1.122    C30.83,12.711,30.44,13,30,13z"/>
	</g>
	<g>
		<path style="fill:#792F21;" d="M34.877,13H34c-0.44,0-0.83-0.289-0.957-0.71c-0.128-0.422,0.036-0.877,0.402-1.122    C35.045,10.102,36,8.317,36,6.395V5h2v1.395c0,1.497-0.43,2.933-1.208,4.155c1.09-0.545,1.926-1.546,2.238-2.792l1.94,0.485    C40.27,11.043,37.764,13,34.877,13z"/>
	</g>
	<g>
		<path style="fill:#792F21;" d="M23.316,25.949l-0.633-1.897l2.37-0.79c-1.908-0.736-3.604-1.996-4.853-3.662l1.6-1.2    c1.691,2.254,4.382,3.6,7.2,3.6c0.49,0,0.909,0.355,0.987,0.84c0.078,0.484-0.206,0.954-0.671,1.109L23.316,25.949z"/>
	</g>
	<g>
		<path style="fill:#792F21;" d="M40.684,25.949l-6-2c-0.465-0.155-0.749-0.625-0.671-1.109C34.091,22.355,34.51,22,35,22    c2.818,0,5.509-1.346,7.2-3.6l1.6,1.2c-1.249,1.666-2.945,2.925-4.853,3.662l2.37,0.79L40.684,25.949z"/>
	</g>
</g>
</svg>
