<?xml version="1.0" encoding="iso-8859-1"?>
<!-- Generator: Adobe Illustrator 22.1.0, SVG Export Plug-In . SVG Version: 6.00 Build 0)  -->
<svg xmlns="http://www.w3.org/2000/svg" xmlns:xlink="http://www.w3.org/1999/xlink" version="1.1" id="Layer_3" x="0px" y="0px" viewBox="0 0 64 64" style="enable-background:new 0 0 64 64;" xml:space="preserve" width="512" height="512">
<g>
	<path style="fill:#598928;" d="M57,37l-14.882-8.929C39.45,30.51,35.9,32,32,32c-3.9,0-7.451-1.49-10.118-3.929L7,37   c-2.761,0-5,2.238-5,5C2,44.703,4.297,47,7,47c2.761,0,5-2.239,5-5l9-4l3,7l-5.881,11.495C18.04,56.831,18,57.174,18,57.519v0.012   C18,59.999,20.001,62,22.469,62h0c1.57,0,3.025-0.824,3.832-2.17L30,54h4l3.698,5.83c0.808,1.346,2.263,2.17,3.832,2.17h0   C43.999,62,46,59.999,46,57.531v-0.012c0-0.345-0.04-0.688-0.119-1.024L40,45l3-7l9,4c0,2.761,2.238,5,5,5c2.703,0,5.001-2.297,5-5   C62,39.238,59.761,37,57,37z"/>
	<path style="fill:#566164;" d="M18.119,56.495C18.04,56.831,18,57.174,18,57.519v0.012C18,59.999,20.001,62,22.469,62   c1.57,0,3.025-0.824,3.833-2.17l0.121-0.191l-7.511-4.694L18.119,56.495z"/>
	<path style="fill:#566164;" d="M46,57.519c0-0.345-0.04-0.688-0.119-1.024l-0.793-1.55l-7.511,4.694l0.121,0.191   c0.808,1.346,2.263,2.17,3.832,2.17h0C43.999,62,46,59.999,46,57.531V57.519z"/>
	<polygon style="fill:#3B4546;" points="26.423,59.639 28.79,55.907 20.341,52.152 18.912,54.945  "/>
	<polygon style="fill:#3B4546;" points="45.088,54.945 43.659,52.152 35.21,55.907 37.577,59.639  "/>
	<polygon style="fill:#2B62A1;" points="40,45 24,45 20.341,52.152 28.79,55.907 30,54 34,54 35.21,55.907 43.659,52.152  "/>
	<polygon style="fill:#3B4546;" points="24,45 21,38 24,32 24.702,33.826 32,38.083 39.298,33.826 40,32 43,38 40,45  "/>
	<polygon style="fill:#566164;" points="10.095,35.143 14.057,41.086 18.949,38.911 15.085,32.149  "/>
	<path style="fill:#6F5C89;" d="M42.12,28.072C39.452,30.512,35.9,32,32,32c-3.9,0-7.452-1.488-10.12-3.928l-6.71,4.026   c0,0-0.998-0.594-0.998-0.594c-0.977-0.586-1.846-1.313-2.585-2.15C11.588,29.354,13,27,13,27s-0.306-3.059-0.306-3.059   c1.043-0.161,2.015-0.65,2.77-1.406l0.071-0.071C16.473,21.527,17,20.255,17,18.929V17h0c0-8.525,7.111-15.388,15.725-14.983   C40.793,2.397,47,9.347,47,17.424l0,1.505c0,1.326,0.527,2.598,1.464,3.536l0.071,0.071C49.473,23.473,50.745,24,52.071,24H55   l-0.046,0.228c-0.608,3.039-2.469,5.681-5.127,7.275L49,32c0,0-0.175,0.095-0.175,0.095C48.825,32.095,42.12,28.072,42.12,28.072z"/>
	<polygon style="fill:#D8C4A9;" points="4,23 2,26 2,31 6,34 7,43 11,42 10,32 13,27 11,7 7,2 3,8  "/>
	<polygon style="fill:#566164;" points="53.905,35.143 48.915,32.149 45.051,38.911 49.943,41.086  "/>
	<path style="fill:#9FB86E;" d="M44.417,25.417l-0.66-0.66C42.632,23.632,42,22.106,42,20.515V14l-1.812-3.019   C39.451,9.752,38.123,9,36.69,9h0c-1.082,0-2.12,0.43-2.885,1.195L32,12l-1.805-1.805C29.43,9.43,28.392,9,27.31,9h0   c-1.433,0-2.761,0.752-3.499,1.981L22,14v6.515c0,1.591-0.632,3.117-1.757,4.243l-0.66,0.66l0,0C22.281,29.39,26.836,32,32,32   C37.164,32,41.719,29.39,44.417,25.417L44.417,25.417z"/>
	<circle style="fill:#ABABAB;" cx="28" cy="19" r="2"/>
	<circle style="fill:#ABABAB;" cx="36" cy="19" r="2"/>
	<polygon style="fill:#3B4546;" points="31.256,45 42.321,52.746 43.659,52.152 42.933,50.732 34.745,45  "/>
	<path style="fill:#566164;" d="M38.203,30.643l0.705,1.41l-0.418,1.086L32,36.925l-6.491-3.786l-0.418-1.086l0.705-1.41   c-0.61-0.278-1.205-0.582-1.768-0.936l-4.466,8.933L21,38l0.516,1.204l2.365-4.729L27.929,45h2.143l-1.456-3.784L32,39.242   l3.384,1.974L33.929,45h2.143l4.048-10.525l2.365,4.729L43,38l1.438,0.639l-4.466-8.933C39.408,30.06,38.813,30.365,38.203,30.643z    M27.888,39.324l-1.23-3.198l3.357,1.958L27.888,39.324z M36.112,39.324l-2.126-1.24l3.357-1.958L36.112,39.324z"/>
	<polygon style="fill:#B8A490;" points="7.001,27.04 8.999,26.96 8.053,3.317 7,2 6.056,3.416  "/>
	<path style="fill:#598928;" d="M26,27v-3c0-0.334-0.167-0.646-0.445-0.832l-3.568-2.379c-0.033,0.724-0.193,1.431-0.474,2.088   L24,24.535V27H26z"/>
	<path style="fill:#598928;" d="M42.014,20.789l-3.568,2.379C38.167,23.354,38,23.666,38,24v3h2v-2.465l2.488-1.659   C42.206,22.22,42.047,21.513,42.014,20.789z"/>
	<path style="fill:#598928;" d="M26.293,13.707l1.414-1.414L25.084,9.67c-0.509,0.332-0.95,0.772-1.273,1.31l-0.092,0.153   L26.293,13.707z"/>
	<path style="fill:#598928;" d="M36.293,12.293l1.414,1.414l2.573-2.573l-0.092-0.153c-0.323-0.538-0.764-0.978-1.273-1.31   L36.293,12.293z"/>
	<g>
		<path style="fill:#598928;" d="M31,19c0-1.583-1.236-2.87-2.793-2.979l-3.965-0.991l-0.485,1.94l1.715,0.429    C25.177,17.863,25,18.41,25,19c0,1.654,1.346,3,3,3S31,20.654,31,19z M27,19c0-0.551,0.449-1,1-1s1,0.449,1,1s-0.449,1-1,1    S27,19.551,27,19z"/>
		<rect x="28" y="25" style="fill:#598928;" width="8" height="2"/>
		<path style="fill:#598928;" d="M40.243,16.97l-0.485-1.94l-3.965,0.991C34.236,16.13,33,17.417,33,19c0,1.654,1.346,3,3,3    s3-1.346,3-3c0-0.59-0.177-1.137-0.472-1.601L40.243,16.97z M36,20c-0.551,0-1-0.449-1-1s0.449-1,1-1s1,0.449,1,1S36.551,20,36,20    z"/>
	</g>
</g>
</svg>
