<?xml version="1.0" encoding="iso-8859-1"?>
<!-- Generator: Adobe Illustrator 22.1.0, SVG Export Plug-In . SVG Version: 6.00 Build 0)  -->
<svg xmlns="http://www.w3.org/2000/svg" xmlns:xlink="http://www.w3.org/1999/xlink" version="1.1" id="Layer_3" x="0px" y="0px" viewBox="0 0 64 64" style="enable-background:new 0 0 64 64;" xml:space="preserve" width="512" height="512">
<g>
	<path style="fill:#598928;" d="M22,28l-6,3l-0.186,1.062L10,34l-0.6,3H7c-2.761,0-5,2.238-5,5C2,44.703,4.297,47,7,47   c2.761,0,5-2.239,5-5l10-2l0,5l-3.881,11.495C18.04,56.831,18,57.174,18,57.519v0.012C18,59.999,20.001,62,22.469,62h0   c1.57,0,3.025-0.824,3.833-2.17L29,55h6l2.698,4.83c0.808,1.346,2.263,2.17,3.833,2.17h0C43.999,62,46,59.999,46,57.531v-0.012   c0-0.345-0.04-0.688-0.119-1.024L42,44l0-4c0,0,10,2,10,2c0,2.761,2.238,5,5,5c2.703,0,5.001-2.297,5-5c0-2.761-2.239-5-5-5h-2.4   L54,34l-5.786-1.929L48,31l-6-3"/>
	<polygon style="fill:#56316E;" points="43.553,49 20.649,49 18.961,54 22,54 22,57 25,56 26.872,58.809 29,55 35,55 37.128,58.809    39,56 42,57 42,54 45.106,54  "/>
	<circle style="fill:#49711E;" cx="32" cy="17" r="15"/>
	<ellipse style="fill:#598928;" cx="30.5" cy="17" rx="13.5" ry="14.924"/>
	<path style="fill:#3B4546;" d="M32,2c-4.91,0-9.255,2.37-11.992,6.016L22,12l4-3l2,3l4-3l4,3l2-3l4,3l1.992-3.984   C41.255,4.37,36.91,2,32,2z"/>
	<g>
		<path style="fill:#3B4546;" d="M27.164,15.017l0-0.003l-6-1l-0.329,1.973l3.54,0.59C24.144,17.002,24,17.482,24,18    c0,1.654,1.346,3,3,3s3-1.346,3-3C30,16.402,28.741,15.104,27.164,15.017z M27,19c-0.551,0-1-0.449-1-1s0.449-1,1-1s1,0.449,1,1    S27.551,19,27,19z"/>
		<path style="fill:#3B4546;" d="M43.165,15.986l-0.329-1.973l-6,1l0,0.003C35.259,15.104,34,16.402,34,18c0,1.654,1.346,3,3,3    s3-1.346,3-3c0-0.518-0.144-0.998-0.376-1.424L43.165,15.986z M37,19c-0.551,0-1-0.449-1-1s0.449-1,1-1s1,0.449,1,1    S37.551,19,37,19z"/>
	</g>
	<g>
		<path style="fill:#3B4546;" d="M37.293,27.707C36.192,26.606,34.729,26,33.171,26h-2.343c-1.557,0-3.021,0.606-4.122,1.707    l-1.414-1.414C26.771,24.814,28.737,24,30.829,24h2.343c2.091,0,4.057,0.814,5.536,2.293L37.293,27.707z"/>
	</g>
	<g>
		<path style="fill:#49711E;" d="M28,41h-5c-0.459,0-0.859-0.312-0.97-0.757l-1-4l1.94-0.485L23.781,39h3.917l2.748-1.832    l1.109,1.664l-3,2C28.391,40.941,28.197,41,28,41z"/>
	</g>
	<g>
		<path style="fill:#49711E;" d="M41,41h-5c-0.197,0-0.391-0.059-0.555-0.168l-3-2l1.109-1.664L36.303,39h3.917l0.811-3.243    l1.94,0.485l-1,4C41.859,40.688,41.459,41,41,41z"/>
	</g>
	<g>
		<path style="fill:#49711E;" d="M31,46h-3c-0.265,0-0.52-0.105-0.707-0.293l-2-2l1.414-1.414L28.414,44H31V46z"/>
	</g>
	<g>
		<path style="fill:#49711E;" d="M36,46h-3v-2h2.586l1.707-1.707l1.414,1.414l-2,2C36.52,45.895,36.265,46,36,46z"/>
	</g>
</g>
</svg>
