<?xml version="1.0" encoding="iso-8859-1"?>
<!-- Generator: Adobe Illustrator 22.1.0, SVG Export Plug-In . SVG Version: 6.00 Build 0)  -->
<svg xmlns="http://www.w3.org/2000/svg" xmlns:xlink="http://www.w3.org/1999/xlink" version="1.1" id="Layer_3" x="0px" y="0px" viewBox="0 0 64 64" style="enable-background:new 0 0 64 64;" xml:space="preserve" width="512" height="512">
<g>
	<path style="fill:#4F7158;" d="M19,59H8l7-32l5-1l-0.02-0.025c0.567,0.758,1.203,1.46,1.9,2.097"/>
	<path style="fill:#4F7158;" d="M45,59h11l-7-32c0,0-5-1-4.999-0.999c-0.563,0.749-1.194,1.444-1.884,2.075"/>
	<path style="fill:#3B4546;" d="M42,28l15,9c2.761,0,5,2.238,5,5c0,2.703-2.297,5.001-5,5c-2.761,0-5-2.239-5-5l-12-3l5.881,17.495   C45.96,56.831,46,57.174,46,57.519v0.012C46,59.999,43.999,62,41.531,62h0c-1.57,0-3.025-0.824-3.833-2.17L36,57h-8l-1.698,2.83   C25.494,61.176,24.039,62,22.469,62h0C20.001,62,18,59.999,18,57.531v-0.012c0-0.345,0.04-0.688,0.119-1.024L24,39l-12,3   c0,2.761-2.238,5-5,5C4.297,47,2,44.703,2,42c0-2.761,2.239-5,5-5l15-9"/>
	<path style="fill:#566164;" d="M27,31l1,7l-1,16l-11,1l4-15l-8,2c0,1.126-0.372,2.164-0.999,3l0-10.4L22,28"/>
	<path style="fill:#919191;" d="M8.889,35.867L7,37c-2.761,0-5,2.238-5,5C2,44.703,4.297,47,7,47c2.761,0,5-2.239,5-5l1.655-0.414   L8.889,35.867z"/>
	<polygon style="fill:#B89148;" points="13.655,41.586 18.345,40.414 12.667,33.6 8.889,35.867  "/>
	<polyline style="fill:#D2C3AF;" points="7,30 7,60 11,62 11,30  "/>
	<rect x="7" y="30" style="fill:#B8A490;" width="4" height="4"/>
	<path style="fill:#566164;" d="M37,31l-1,7l1,16l11,1l-4-15l8,2c0,2.761,2.238,5,5,5c2.703,0,5.001-2.297,5-5c0-2.761-2.239-5-5-5   l-15-9"/>
	<path style="fill:#919191;" d="M57,37l-1.889-1.133l-4.766,5.72L52,42c0,2.761,2.238,5,5,5c2.703,0,5.001-2.297,5-5   C62,39.238,59.761,37,57,37z"/>
	<path style="fill:#919191;" d="M18.676,54.838c0,0,8.17,4.085,8.17,4.085l-0.544,0.907C25.494,61.176,24.039,62,22.469,62h0   C20.001,62,18,59.999,18,57.531v-0.012c0-0.345,0.04-0.688,0.119-1.024L18.676,54.838z"/>
	<path style="fill:#919191;" d="M37.154,58.923l8.177-4.066l0.551,1.638C45.96,56.831,46,57.174,46,57.519v0.012   C46,59.999,43.999,62,41.531,62h0c-1.57,0-3.025-0.824-3.833-2.17C37.698,59.83,37.154,58.923,37.154,58.923z"/>
	<polygon style="fill:#B89148;" points="55.111,35.867 51.333,33.6 45.655,40.414 50.345,41.586  "/>
	<path style="fill:#4F7158;" d="M36.978,31.154c1.447-0.509,2.792-1.233,3.997-2.134L41,29v7c0,0-4.824,4.824-4.824,4.824L36,38   L36.978,31.154z"/>
	<path style="fill:#4F7158;" d="M27.022,31.154c-1.457-0.512-2.811-1.243-4.023-2.154C23,29,23,36,23,36s4.824,4.824,4.824,4.824   L28,38C28,38,27.022,31.154,27.022,31.154z"/>
	<polygon style="fill:#B89148;" points="36.939,53.024 46.458,49.217 44.833,43.125 36.701,49.224  "/>
	<polygon style="fill:#B89148;" points="27.299,49.224 19.167,43.125 17.542,49.217 27.061,53.024  "/>
	<path style="fill:#D2A95C;" d="M9,18.171V18C9,12.71,8.048,7.463,6.191,2.509L6,2l7,6v20l-2,2H7l-5-5V14l0.661,1.652   C3.533,17.833,5.046,19.697,7,21l0,0C7,19.694,7.835,18.583,9,18.171z"/>
	<path style="fill:#EDD07A;" d="M13,21v7l-2,2H9v-0.838c0-1.98-0.302-3.948-0.895-5.836C8.622,23.747,9.281,24,10,24   C11.657,24,13,22.657,13,21z"/>
	<circle style="fill:#4B88BA;" cx="10" cy="21" r="3"/>
	<path style="fill:#D2A95C;" d="M37,7h-2l-3,3l-3-3h-2l-5,1l-5,1l0,8c0,8.284,6.716,15,15,15s15-6.716,15-15l0-8l-5-1L37,7z"/>
	<polygon style="fill:#B89148;" points="17,13.98 17,16.02 22.196,14.98 21.804,13.02  "/>
	<polygon style="fill:#B89148;" points="47,16.02 47,13.98 42.196,13.02 41.804,14.98  "/>
	<g>
		<path style="fill:#566164;" d="M32,38c-0.153,0-0.307-0.035-0.447-0.105l-3.842-1.921l-0.344-2.408L32,35.882l4.633-2.316    l-0.344,2.408l-3.842,1.921C32.307,37.965,32.153,38,32,38z"/>
	</g>
	<path style="fill:#B89148;" d="M21.047,14v-0.443c0-4.155,1.846-8.095,5.037-10.755L27.047,2v0.39   c0,4.309,0.994,8.559,2.905,12.419L21.047,14z"/>
	<path style="fill:#B89148;" d="M43,14v-0.443c0-4.155-1.846-8.095-5.037-10.755L37,2v0.39c0,4.309-0.994,8.559-2.905,12.419L43,14z   "/>
	<path style="fill:#D8C4A9;" d="M21,14v7l4,5v4.262C27.091,31.368,29.47,32,32,32s4.909-0.632,7-1.738V26l4-5v-7l-11,1L21,14z"/>
	<g>
		<path style="fill:#B8A490;" d="M31,21c0-1.585-1.239-2.873-2.797-2.979l-3.961-0.99l-0.484,1.939l1.715,0.429    C25.177,19.863,25,20.41,25,21c0,1.654,1.346,3,3,3S31,22.654,31,21z M27,21c0-0.552,0.448-1,1-1s1,0.448,1,1s-0.448,1-1,1    S27,21.552,27,21z"/>
		<path style="fill:#B8A490;" d="M40.242,18.97l-0.484-1.939l-3.961,0.99C34.239,18.127,33,19.415,33,21c0,1.654,1.346,3,3,3    s3-1.346,3-3c0-0.59-0.177-1.137-0.472-1.602L40.242,18.97z M36,22c-0.552,0-1-0.448-1-1s0.448-1,1-1s1,0.448,1,1S36.552,22,36,22    z"/>
		<rect x="28" y="27" style="fill:#B8A490;" width="8" height="2"/>
	</g>
	<polygon style="fill:#566164;" points="36.785,50.566 32.501,47.234 33.389,45.458 36.623,47.973 36.457,45.31 27.956,38.699    27.805,41.115 31.779,44.206 30.891,45.982 27.658,43.468 27.507,45.884 36.952,53.229  "/>
</g>
</svg>
