<?xml version="1.0" encoding="iso-8859-1"?>
<!-- Generator: Adobe Illustrator 22.1.0, SVG Export Plug-In . SVG Version: 6.00 Build 0)  -->
<svg xmlns="http://www.w3.org/2000/svg" xmlns:xlink="http://www.w3.org/1999/xlink" version="1.1" id="Layer_3" x="0px" y="0px" viewBox="0 0 64 64" style="enable-background:new 0 0 64 64;" xml:space="preserve" width="512" height="512">
<g>
	<path style="fill:#3B4546;" d="M51,34l4-6h-2c-4.418,0-8-3.582-8-8v-2c0-7.18-5.82-13-13-13s-13,5.82-13,13v2c0,4.418-3.582,8-8,8   H9l4,6"/>
	<path style="fill:#E4CFB6;" d="M17.25,31.875L7,37c-2.761,0-5,2.238-5,5C2,44.703,4.297,47,7,47c2.761,0,5-2.239,5-5l10-3l1,7   l-4.881,10.495C18.04,56.831,18,57.174,18,57.519v0.012C18,59.999,20.001,62,22.469,62h0c1.57,0,3.025-0.824,3.833-2.17L30,53h4   l3.698,6.83c0.808,1.346,2.263,2.17,3.833,2.17h0C43.999,62,46,59.999,46,57.531v-0.012c0-0.345-0.04-0.688-0.119-1.024L41,46l1-7   l10,3c0,2.761,2.238,5,5,5c2.703,0,5.001-2.297,5-5c0-2.761-2.239-5-5-5l-10.25-5.125L48,30l-7.764-1.941   C37.993,29.897,35.126,31,32,31s-5.993-1.103-8.236-2.941L16,30C16,30,17.25,31.875,17.25,31.875z"/>
	<path style="fill:#4F7158;" d="M24.953,28.926c-0.413-0.267-0.574-0.621-0.953-0.932L16,30l6,9l1,7l-4.881,10.495   C18.04,56.831,18,57.174,18,57.519v0.012C18,59.999,20.001,62,22.469,62h0c1.57,0,3.025-0.824,3.833-2.17L30,53h4l3.698,6.83   c0.808,1.346,2.263,2.17,3.833,2.17h0C43.999,62,46,59.999,46,57.531v-0.012c0-0.345-0.04-0.688-0.119-1.024L41,46l1-7l6-9   l-8-2.006c-0.379,0.311-0.54,0.665-0.953,0.932L32,40C32,40,24.953,28.926,24.953,28.926z"/>
	<path style="fill:#566164;" d="M18.849,54.925l-0.73,1.57C18.04,56.831,18,57.174,18,57.519v0.012C18,59.999,20.001,62,22.469,62   c1.57,0,3.025-0.824,3.833-2.17l0.502-0.928L18.849,54.925z"/>
	<path style="fill:#566164;" d="M46,57.531v-0.012c0-0.345-0.04-0.688-0.119-1.024l-0.73-1.57l-7.955,3.978l0.502,0.928   c0.808,1.346,2.263,2.17,3.833,2.17C43.999,62,46,59.999,46,57.531z"/>
	<polygon style="fill:#3B4546;" points="26.804,58.902 30,53 30,53 22.054,48.034 18.849,54.925  "/>
	<polygon style="fill:#3B4546;" points="34,53 37.196,58.902 45.151,54.925 41.946,48.034 34,53  "/>
	<path style="fill:#4F7158;" d="M15.056,41.083L11,35l-4,2c-2.761,0-5,2.238-5,5C2,44.703,4.297,47,7,47c2.761,0,5-2.239,5-5   L15.056,41.083z"/>
	<path style="fill:#4F7158;" d="M57,37l-4-2l-4.056,6.083L52,42c0,2.761,2.238,5,5,5c2.703,0,5.001-2.297,5-5   C62,39.238,59.761,37,57,37z"/>
	<path style="fill:#D8C4A9;" d="M42,2c-1.657,0-3,1.343-3,3l-5.571,6.925C32.554,11.233,32,10.174,32,9   c0,1.194-0.574,2.27-1.475,2.96L25,5c0-1.657-1.343-3-3-3s-3,1.343-3,3s1.343,3,3,3l4.018,5.329l-0.089,0.02   C24.217,13.729,23,15.247,23,17v2.577c0,2.938,0.36,5.864,1.073,8.714C26.268,29.984,29.013,31,32,31s5.732-1.016,7.927-2.709   C40.64,25.441,41,22.515,41,19.577V17c0-1.753-1.217-3.271-2.929-3.651l-0.007-0.002L42,8c1.657,0,3-1.343,3-3S43.657,2,42,2z"/>
	<path style="fill:#B8A490;" d="M25.416,18.503C25.158,18.945,25,19.452,25,20c0,1.654,1.346,3,3,3s3-1.346,3-3   c0-1.587-1.242-2.877-2.804-2.98l0,0l-5-1L23,17v1.02L25.416,18.503z M28,19c0.552,0,1,0.448,1,1s-0.448,1-1,1s-1-0.448-1-1   S27.448,19,28,19z"/>
	<path style="fill:#B8A490;" d="M41,17l-0.196-0.98l-5,1l0,0C34.242,17.123,33,18.413,33,20c0,1.654,1.346,3,3,3s3-1.346,3-3   c0-0.548-0.158-1.055-0.416-1.497L41,18.02V17z M36,21c-0.552,0-1-0.448-1-1s0.448-1,1-1s1,0.448,1,1S36.552,21,36,21z"/>
	<path style="fill:#4E5F43;" d="M36.6,46.8c0.147-0.109,0.261-0.258,0.329-0.429L38.677,42h2.895l0.286-2H38   c-0.409,0-0.776,0.249-0.929,0.629l-1.896,4.739L33,47v-8.572L32,40l-1-1.571V47l-2.176-1.632l-1.896-4.739   C26.776,40.249,26.409,40,26,40h-3.857l0.286,2h2.895l1.748,4.371c0.068,0.171,0.182,0.319,0.329,0.429l3.6,2.7V53h2v-3.5   L36.6,46.8z"/>
	<rect x="28" y="25" style="fill:#B8A490;" width="8" height="2"/>
	<circle style="fill:#B8A490;" cx="22" cy="5" r="2"/>
	<circle style="fill:#B8A490;" cx="42" cy="5" r="2"/>
</g>
</svg>
