<?xml version="1.0" encoding="iso-8859-1"?>
<!-- Generator: Adobe Illustrator 22.1.0, SVG Export Plug-In . SVG Version: 6.00 Build 0)  -->
<svg xmlns="http://www.w3.org/2000/svg" xmlns:xlink="http://www.w3.org/1999/xlink" version="1.1" id="Layer_3" x="0px" y="0px" viewBox="0 0 64 64" style="enable-background:new 0 0 64 64;" xml:space="preserve" width="512" height="512">
<g>
	<polyline style="fill:#3B4546;" points="58,38 58,23 54,23 54,37  "/>
	<path style="fill:#B9B9B9;" d="M58,46.552v16l-0.192-0.192C55.37,59.922,54,56.615,54,53.167v-7.615"/>
	<path style="fill:#ABABAB;" d="M55,45.802v7.365c0,3.045,1.071,5.977,3,8.301V46.552"/>
	<path style="fill:#B9B9B9;" d="M43,40l9,2c0,2.761,2.238,5,5,5c2.703,0,5.001-2.297,5-5c0-2.761-2.239-5-5-5l-9.089-4.04"/>
	<polygon style="fill:#566164;" points="54,32.03 58,33.031 58,30.97 54,29.97  "/>
	<path style="fill:#B9B9B9;" d="M6,46v16l0.192-0.192C8.63,59.37,10,56.063,10,52.615V45"/>
	<path style="fill:#ABABAB;" d="M6,46v14.916c1.929-2.324,3-5.256,3-8.301V45.25"/>
	<polyline style="fill:#3B4546;" points="6,38 6,23 10,23 10,37  "/>
	<path style="fill:#88C3F8;" d="M21,40l-9,2c0,2.761-2.238,5-5,5C4.297,47,2,44.703,2,42c0-2.761,2.239-5,5-5l9.088-4.042"/>
	<polyline style="fill:#811E18;" points="42,28 49,31 43.89,40.198 43,40 41,45 44.844,54.052 36.513,56.829 35,53 29,53    27.487,56.829 19.156,54.052 23,45 21,40 20.11,40.198 15,31 22,28  "/>
	<path style="fill:#566164;" d="M19.156,54.052l-1.037,2.443C18.04,56.831,18,57.174,18,57.519v0.012C18,59.999,20.001,62,22.469,62   h0c1.57,0,3.025-0.824,3.832-2.17l1.185-3.001L19.156,54.052z"/>
	<path style="fill:#566164;" d="M41.531,62C43.999,62,46,59.999,46,57.531v-0.012c0-0.345-0.04-0.688-0.119-1.024l-1.037-2.443   l-8.331,2.777l1.185,3.001C38.506,61.176,39.961,62,41.531,62L41.531,62z"/>
	<polygon style="fill:#991D13;" points="19.938,39.888 20.11,40.198 21,40 21.497,41.242 24.895,34.447 23.105,33.553  "/>
	<polygon style="fill:#991D13;" points="40.895,33.553 39.105,34.447 42.503,41.242 43,40 43.89,40.198 44.062,39.888  "/>
	<g>
		<path style="fill:#991D13;" d="M36.355,46.709l-2.332-10.492c-0.03-0.136-0.032-0.276-0.004-0.413l1.233-6.164l1.961,0.393    l-1.191,5.957l2.286,10.286L36.355,46.709z"/>
	</g>
	<g>
		<path style="fill:#991D13;" d="M27.645,46.709l-1.952-0.434l2.286-10.286l-1.225-6.125l1.961-0.393l1.267,6.332    c0.027,0.137,0.026,0.277-0.004,0.413L27.645,46.709z"/>
	</g>
	<polygon style="fill:#566164;" points="6,28.031 10,29.03 10,26.97 6,25.97  "/>
	<polygon style="fill:#566164;" points="6,33.03 10,32.03 10,29.97 6,30.969  "/>
	<polygon style="fill:#566164;" points="54,29.031 58,28.031 58,25.97 54,26.97  "/>
	<circle style="fill:#88C3F8;" cx="32" cy="17" r="15"/>
	<path style="fill:#8367B9;" d="M30.167,2.123c-0.188,0.023-0.372,0.055-0.557,0.085c-0.522,0.087-1.038,0.194-1.542,0.33   c0,0-0.001,0-0.001,0L29,10l1,12l-0.61,9.758C30.239,31.908,31.108,32,32,32s1.761-0.092,2.61-0.242L34,22l1-12l0.933-7.461   c0,0,0,0,0,0c-0.504-0.137-1.02-0.243-1.542-0.33c-0.185-0.03-0.37-0.062-0.557-0.085C33.65,2.1,33.466,2.081,33.282,2.065   C32.858,2.029,32.433,2,32,2c-0.433,0-0.858,0.029-1.282,0.065C30.534,2.081,30.35,2.1,30.167,2.123z"/>
	<path style="fill:#ABABAB;" d="M30,19c0,2.761-1.791,5-4,5s-4-2.239-4-5c0-1.156,0.314-2.221,0.841-3.068l0.001,0L30,19z"/>
	<path style="fill:#ABABAB;" d="M34,19c0,2.761,1.791,5,4,5s4-2.239,4-5c0-1.156-0.314-2.221-0.841-3.068l-0.001,0L34,19z"/>
	<path style="fill:#919191;" d="M44.636,8.939L39,8l-4,2l-2,5l3-2l5-1l5.839,2.92C46.536,12.741,45.771,10.714,44.636,8.939z"/>
	<g>
		<path style="fill:#3B4546;" d="M26.5,22c-0.827,0-1.5-0.673-1.5-1.5s0.673-1.5,1.5-1.5s1.5,0.673,1.5,1.5S27.327,22,26.5,22z"/>
	</g>
	<g>
		<path style="fill:#3B4546;" d="M37.5,22c-0.827,0-1.5-0.673-1.5-1.5s0.673-1.5,1.5-1.5s1.5,0.673,1.5,1.5S38.327,22,37.5,22z"/>
	</g>
	<path style="fill:#919191;" d="M33.196,25.02l-0.393,1.961l5,1C37.869,27.993,37.934,28,38,28c0.055,0,0.11-0.005,0.165-0.014   l4.828-0.805c0.661-0.714,1.252-1.49,1.765-2.322l-6.742,1.124L33.196,25.02z"/>
	<path style="fill:#ABABAB;" d="M34.956,2.294L34.617,5h-5.235l-0.338-2.706c-0.668,0.134-1.315,0.323-1.948,0.542l0.911,7.288   l1.984-0.248L29.633,7h4.735l-0.359,2.876l1.984,0.248l0.911-7.288C36.27,2.617,35.624,2.428,34.956,2.294z"/>
	<polygon style="fill:#566164;" points="21.301,49 42.699,49 41,45 23,45  "/>
</g>
</svg>
