<?xml version="1.0" encoding="iso-8859-1"?>
<!-- Generator: Adobe Illustrator 22.1.0, SVG Export Plug-In . SVG Version: 6.00 Build 0)  -->
<svg xmlns="http://www.w3.org/2000/svg" xmlns:xlink="http://www.w3.org/1999/xlink" version="1.1" id="Layer_3" x="0px" y="0px" viewBox="0 0 64 64" style="enable-background:new 0 0 64 64;" xml:space="preserve" width="512" height="512">
<g>
	<path style="fill:#465240;" d="M44.135,52.178l1.746,4.317C45.96,56.831,46,57.174,46,57.519v0.012C46,59.999,43.999,62,41.531,62   h0c-1.57,0-3.025-0.824-3.833-2.17L35,57h-6l-2.698,2.83C25.494,61.176,24.039,62,22.469,62h0C20.001,62,18,59.999,18,57.531   v-0.012c0-0.345,0.04-0.688,0.119-1.024l1.75-4.325L29,53l1.041-4.163C30.041,48.837,32,49,32,49l1.957-0.163L35,53.009   L44.135,52.178z"/>
	<path style="fill:#566164;" d="M26.302,59.83l0.761-0.798l-8.005-4.002l-0.94,1.466C18.04,56.831,18,57.174,18,57.519v0.012   C18,59.999,20.001,62,22.469,62C24.039,62,25.494,61.176,26.302,59.83z"/>
	<path style="fill:#566164;" d="M41.531,62C43.999,62,46,59.999,46,57.531v-0.012c0-0.345-0.04-0.688-0.119-1.024l-0.94-1.466   l-8.005,4.002l0.761,0.799C38.506,61.176,39.961,62,41.531,62L41.531,62z"/>
	<polyline style="fill:#4E5F43;" points="22,28 19,30 21.209,30.884 11.903,36.054 16.125,40.979 22,40 21,45 18,52 29,53    30.041,48.837 32,49 33.957,48.837 35,53.009 46,52.009 43,45.009 42,40.009 47.868,40.987 52.097,36.054 42.791,30.884 45,30    42,28  "/>
	<path style="fill:#566164;" d="M17,42l-5,2c0,2.761-2.238,5-5,5C4.297,49,2,46.703,2,44c0-2.761,2.239-5,5-5l4-4L17,42z"/>
	<path style="fill:#566164;" d="M47,42l5,2c0,2.761,2.238,5,5,5c2.703,0,5.001-2.297,5-5c0-2.761-2.239-5-5-5l-4-4L47,42z"/>
	<polygon style="fill:#3B4546;" points="44.276,47.977 32,49 19.724,47.977 21,45 21.196,44.018 32,45 42.802,44.018 43,45.009    44.273,47.978  "/>
	<polygon style="fill:#566164;" points="36.69,44.574 29,34 20.771,30.708 32,45  "/>
	<polyline style="fill:#3B4546;" points="41.807,27.871 45,30 35,34 29,34 19,30 22.193,27.871  "/>
	<path style="fill:#CA5057;" d="M23.573,2.602L32,2l8.427,0.602C43.567,2.826,46,5.439,46,8.587V22.15   c0,2.829-1.976,5.274-4.743,5.867L32,30l-9.257-1.984C19.976,27.424,18,24.979,18,22.15V8.587C18,5.439,20.433,2.826,23.573,2.602z   "/>
	<polygon style="fill:#FFFFFF;" points="38,26 32,25 26,26 25,22 32,21 39,22  "/>
	<circle style="fill:#566164;" cx="25" cy="14" r="3"/>
	<circle style="fill:#566164;" cx="39" cy="14" r="3"/>
	<polygon style="fill:#B9B9B9;" points="29.091,25.485 31.069,25.155 30.098,21.272 28.109,21.556  "/>
	<polygon style="fill:#B9B9B9;" points="32.931,25.155 34.909,25.485 35.891,21.556 33.902,21.272  "/>
	<g>
		<path style="fill:#DC6068;" d="M33.168,18.555L32,16.803l-1.168,1.752l-1.664-1.109l2-3c0.371-0.557,1.293-0.557,1.664,0l2,3    L33.168,18.555z"/>
	</g>
	<g>
		<path style="fill:#DC6068;" d="M32,11c-0.87,0-1.725-0.3-2.405-0.844l-3.438-2.75C25.829,7.145,25.418,7,25,7h-1V5h1    c0.87,0,1.725,0.3,2.405,0.844l3.438,2.75c0.654,0.523,1.657,0.523,2.313,0l3.437-2.75C37.275,5.3,38.13,5,39,5h1v2h-1    c-0.418,0-0.829,0.145-1.157,0.406l-3.437,2.75C33.725,10.7,32.87,11,32,11z"/>
	</g>
	<path style="fill:#3B4546;" d="M25,10c-2.206,0-4,1.794-4,4s1.794,4,4,4s4-1.794,4-4S27.206,10,25,10z M25,16c-1.103,0-2-0.897-2-2   s0.897-2,2-2c0.086,0,0.167,0.015,0.25,0.025C24.542,12.145,24,12.758,24,13.5c0,0.827,0.673,1.5,1.5,1.5   c0.742,0,1.355-0.542,1.475-1.25C26.985,13.833,27,13.914,27,14C27,15.103,26.103,16,25,16z"/>
	<path style="fill:#3B4546;" d="M39,10c-2.206,0-4,1.794-4,4s1.794,4,4,4s4-1.794,4-4S41.206,10,39,10z M39,16c-1.103,0-2-0.897-2-2   s0.897-2,2-2c0.086,0,0.167,0.015,0.25,0.025C38.542,12.145,38,12.758,38,13.5c0,0.827,0.673,1.5,1.5,1.5   c0.742,0,1.355-0.542,1.475-1.25C40.985,13.833,41,13.914,41,14C41,15.103,40.103,16,39,16z"/>
	<path style="fill:#566164;" d="M28,48.667c0.879,0.073,1.455,0.121,2,0.167v-4.015l-2-0.182V48.667z"/>
	<path style="fill:#566164;" d="M34,48.833l2-0.167v-4.03c-0.722,0.066-1.406,0.128-2,0.182V48.833z"/>
</g>
</svg>
