<?xml version="1.0" encoding="iso-8859-1"?>
<!-- Generator: Adobe Illustrator 22.1.0, SVG Export Plug-In . SVG Version: 6.00 Build 0)  -->
<svg xmlns="http://www.w3.org/2000/svg" xmlns:xlink="http://www.w3.org/1999/xlink" version="1.1" id="Layer_3" x="0px" y="0px" viewBox="0 0 64 64" style="enable-background:new 0 0 64 64;" xml:space="preserve" width="512" height="512">
<g>
	<path style="fill:#917EA3;" d="M21,27L7,37c-2.761,0-5,2.238-5,5C2,44.703,4.297,47,7,47c2.761,0,5-2.239,5-5l5-2l4-1   l-2.881,17.495C18.04,56.831,18,57.174,18,57.519v0.012C18,59.999,20.001,62,22.469,62h0c1.57,0,3.025-0.824,3.833-2.17L29,53h6   l2.698,6.83c0.808,1.346,2.263,2.17,3.833,2.17h0C43.999,62,46,59.999,46,57.531v-0.012c0-0.345-0.04-0.688-0.119-1.024L43,39l4,1   l5,2c0,2.761,2.238,5,5,5c2.703,0,5.001-2.297,5-5c0-2.761-2.239-5-5-5l-4-4l-0.914,1.067L43,27"/>
	<polyline style="fill:#2F456B;" points="42.144,27.759 39,33 32,34 25,33 21.851,27.752  "/>
	<polygon style="fill:#3B4546;" points="44.306,46.932 35,49 29,49 19.694,46.932 18.346,55.115 27.022,58.007 29,53 35,53    36.978,58.007 45.654,55.115  "/>
	<polygon style="fill:#2F456B;" points="35,49 44.306,46.932 43,39 35,40 34,45 30,45 29,40 21,39 19.694,46.932 29,49  "/>
	<path style="fill:#566164;" d="M46,57.519c0-0.345-0.04-0.688-0.119-1.024l-0.227-1.38l-8.676,2.892l0.72,1.823   c0.808,1.346,2.263,2.17,3.833,2.17C43.999,62,46,59.999,46,57.531V57.519z"/>
	<path style="fill:#566164;" d="M18.346,55.115l-0.227,1.38C18.04,56.831,18,57.174,18,57.519v0.012C18,59.999,20.001,62,22.469,62   c1.57,0,3.025-0.824,3.833-2.17l0.72-1.823L18.346,55.115z"/>
	<path style="fill:#B89148;" d="M42.144,27.759L39,33l-7,1l-7-1l-3.149-5.248c-0.394-0.151-0.766-0.341-1.112-0.565   c-0.783,0.559-3.055,2.182-3.055,2.182L20,34l1,5l8,1l1,5h4l1-5l8-1l1-5c0,0,2.24-4.48,2.24-4.48l-2.991-2.326l-0.001,0.002   c-0.344,0.222-0.714,0.41-1.105,0.559L42.144,27.759z"/>
	<path style="fill:#B89148;" d="M47,40l5,2c0,2.761,2.238,5,5,5c2.703,0,5.001-2.297,5-5c0-2.761-2.239-5-5-5l-4-4L47,40z"/>
	<path style="fill:#917EA3;" d="M46,21v1.15c0,2.829-1.976,5.274-4.743,5.867L32,30l-9.257-1.984C19.976,27.424,18,24.979,18,22.15   V21l0,0l-2,0v-8h2V8.587c0-3.148,2.433-5.76,5.573-5.985L32,2l8.427,0.602C43.567,2.826,46,5.439,46,8.587V13l2,0v8L46,21z"/>
	<path style="fill:#3B4546;" d="M29,12c0,2.761-1.791,5-4,5s-4-2.239-4-5c0-1.156,0.314-2.221,0.841-3.068l0.001,0L29,12z"/>
	<path style="fill:#3B4546;" d="M35,12c0,2.761,1.791,5,4,5s4-2.239,4-5c0-1.156-0.314-2.221-0.841-3.068l-0.001,0L35,12z"/>
	<g>
		<path style="fill:#566164;" d="M25.5,15c-0.827,0-1.5-0.673-1.5-1.5s0.673-1.5,1.5-1.5s1.5,0.673,1.5,1.5S26.327,15,25.5,15z"/>
	</g>
	<g>
		<path style="fill:#566164;" d="M38.5,15c-0.827,0-1.5-0.673-1.5-1.5s0.673-1.5,1.5-1.5s1.5,0.673,1.5,1.5S39.327,15,38.5,15z"/>
	</g>
	<g>
		<rect x="25" y="20" style="fill:#566164;" width="14" height="2"/>
	</g>
	<polygon style="fill:#6F5C89;" points="33,24 31,24 31,29.786 32,30 33,29.786  "/>
	<polygon style="fill:#6F5C89;" points="25.077,28.516 27.033,28.936 27.98,24.196 26.02,23.804  "/>
	<polygon style="fill:#6F5C89;" points="37.98,23.804 36.02,24.196 36.967,28.936 38.923,28.516  "/>
	<polygon style="fill:#383838;" points="20.899,55.966 22.816,56.605 26.856,48.524 24.844,48.076  "/>
	<polygon style="fill:#383838;" points="41.184,56.605 43.101,55.966 39.156,48.076 37.144,48.524  "/>
	<polygon style="fill:#9E6A3C;" points="32,34 31,33.857 31,39 33,39 33,33.857  "/>
	<circle style="fill:#91BB3B;" cx="54.5" cy="43.5" r="0.5"/>
	<circle style="fill:#E8A4CD;" cx="56.5" cy="44.5" r="0.5"/>
	<circle style="fill:#88C3F8;" cx="58.5" cy="43.5" r="0.5"/>
	<circle style="fill:#DF3322;" cx="59.5" cy="41.5" r="0.5"/>
	<circle style="fill:#E59149;" cx="58.5" cy="39.5" r="0.5"/>
	<circle style="fill:#EDD07A;" cx="56" cy="41" r="1"/>
</g>
</svg>
