<?xml version="1.0" encoding="iso-8859-1"?>
<!-- Generator: Adobe Illustrator 22.1.0, SVG Export Plug-In . SVG Version: 6.00 Build 0)  -->
<svg xmlns="http://www.w3.org/2000/svg" xmlns:xlink="http://www.w3.org/1999/xlink" version="1.1" id="Layer_3" x="0px" y="0px" viewBox="0 0 64 64" style="enable-background:new 0 0 64 64;" xml:space="preserve" width="512" height="512">
<g>
	<path style="fill:#B89148;" d="M42,28l15,9c2.761,0,5,2.238,5,5c0,2.703-2.297,5.001-5,5c-2.761,0-5-2.239-5-5l-10-2l3.881,16.495   C45.96,56.831,46,57.174,46,57.519v0.012C46,59.999,43.999,62,41.531,62h0c-1.57,0-3.025-0.824-3.833-2.17L35,55h-6l-2.698,4.83   C25.494,61.176,24.039,62,22.469,62h0C20.001,62,18,59.999,18,57.531v-0.012c0-0.345,0.04-0.688,0.119-1.024L22,40l-10,2   c0,2.761-2.238,5-5,5C4.297,47,2,44.703,2,42c0-2.761,2.239-5,5-5l15-9"/>
	<path style="fill:#D2A95C;" d="M37.143,31.515l1.864,3.107l-7.624-1.386l2.012-5.029L32.876,28h-1.553l-2.148,5.369l-1.608,1.206   l-3.196-1.917L27.166,28h-2.332l-2.576,4.293l-2.131,1.42l-2.869-2.868l-1.768,1.061l1.896,1.896l-3.902,2.341   c-0.362,0.218-0.549,0.639-0.466,1.054l0.022,0.11l-3.66,1.464l-1.523-2.286L7,37c-0.384,0-0.753,0.052-1.112,0.134l2.28,3.421   C8.358,40.84,8.674,41,9,41c0.124,0,0.25-0.023,0.371-0.071l4.069-1.628l0.464,2.318l1.961-0.392l-0.746-3.732l3.726-2.236   l0.448,0.448c0.337,0.338,0.866,0.392,1.262,0.125l2.474-1.649l2.812,1.687l-6.113,4.585L22,40l-0.357,1.517l4.07-3.052l1.278,2.13   l-5.091,5.09l1.414,1.414l4.737-4.737l0.091,0.152C28.327,42.822,28.656,43,29,43c0.105,0,0.212-0.017,0.316-0.052l5.4-1.8   l0.322,1.126c0.083,0.29,0.291,0.526,0.567,0.645l7.875,3.375l-0.569-2.42l-6.081-2.606l-1.51-5.285l5.5,1   c0.354,0.071,0.716-0.066,0.947-0.343l1.23-1.476l4.487,2.693C47.645,37.953,47.822,38,48,38c0.212,0,0.423-0.067,0.6-0.2   l0.541-0.406l3.362,2.689l-1.682,1.681L52,42c0,0.431,0.071,0.841,0.174,1.24l2.533-2.533c0.201-0.201,0.307-0.479,0.292-0.763   c-0.016-0.283-0.152-0.548-0.374-0.726l-3.83-3.064l2.132-1.599l-1.852-1.111l-3.136,2.352l-3.644-2.187l2.352-2.823l-1.736-1.042   l-3.777,4.532L39,30.723V28h-2v3C37,31.182,37.049,31.359,37.143,31.515z M29.445,40.798l-2.124-3.539l2.929-2.197l2.877,0.523   l1.04,3.639L29.445,40.798z"/>
	<polygon style="fill:#2B62A1;" points="43.172,44.981 34,46 30,46 20.828,44.981 19.885,48.989 30,50 34,50 44.115,48.989  "/>
	<path style="fill:#D2A95C;" d="M42,28l-10,1l-10-1c-2.761,0-5-2.239-5-5V7c0-2.761,2.239-5,5-5h20c2.761,0,5,2.239,5,5v16   C47,25.761,44.761,28,42,28z"/>
	<circle style="fill:#74B8F7;" cx="26" cy="18" r="2"/>
	<circle style="fill:#74B8F7;" cx="38" cy="18" r="2"/>
	<path style="fill:#B89148;" d="M43.123,6l-2.671-0.668l1.661-3.321C42.074,2.01,42.039,2,42,2h-2.118l-1.571,3.142l-2.707,0.677   L34.077,2h-2.153l1.807,4.517l-2.775,1.388l-3.331-1.332L31.281,2H28.72l-3.2,4h-3.186l-3.636-2.727   c-0.502,0.445-0.913,0.983-1.204,1.597l3.239,2.43L19.382,10H17v2h8.764l4.548,2.274l-3.019,3.019l1.414,1.414l1.563-1.563   l4.172,1.391l-3.274,4.911l1.664,1.109l4-6L36,18l0.316-0.948l-4.466-1.489l0.741-0.741L38.236,12H47v-2h-8.5l-1.796-2.395   L39,7.031l3.757,0.938C42.837,7.99,42.918,8,43,8h4V7c0-0.343-0.035-0.677-0.101-1H43.123z M28.753,11.258l-2.305-1.153   C26.309,10.036,26.155,10,26,10h-4.382l1-2h3.189l3.812,1.525L28.753,11.258z M32,12.882l-1.458-0.729l1.204-2.407l2.956-1.478   l1.78,2.374L32,12.882z"/>
	<path style="fill:#B89148;" d="M21.127,18.713L17,14.586v2.828l3,3v3.283l-1.733,2.599c0.445,0.504,0.984,0.917,1.598,1.208   l1.967-2.95C21.941,24.391,22,24.197,22,24v-3.465l2.555-1.703l-1.109-1.664L21.127,18.713z"/>
	<rect x="27.5" y="19.5" transform="matrix(0.8 -0.6 0.6 0.8 -7.5 21.5)" style="fill:#B89148;" width="1.999" height="5"/>
	<path style="fill:#B89148;" d="M47,22v-1.088l-6.606-2.831l-0.788,1.838l3.185,1.365l-2.972,6.934L42,28   c0.031,0,0.06-0.009,0.091-0.009l2.537-5.919l1.978,0.848L47,22z"/>
	<path style="fill:#D2A95C;" d="M20.757,61.657l3.511-4.682l-1.951-0.731l-3.18,4.239C19.583,60.985,20.127,61.396,20.757,61.657z"/>
	<path style="fill:#D2A95C;" d="M41.932,61.959c0.693-0.063,1.338-0.275,1.903-0.617l-1.755-5.265l-1.869,0.719L41.932,61.959z"/>
	<polygon style="fill:#4097F7;" points="44.115,48.989 34,50 30,50 19.885,48.989 18.513,54.818 27.268,58.101 29,55 35,55    36.732,58.1 45.486,54.818  "/>
	<circle style="fill:#919191;" cx="32" cy="48" r="3"/>
	<g>
		<rect x="24" y="23" style="fill:#566164;" width="16" height="2"/>
	</g>
	<path style="fill:#566164;" d="M26.196,15.02L26.196,15.02l-5-1l-0.393,1.961l2.612,0.522C23.158,16.945,23,17.452,23,18   c0,1.654,1.346,3,3,3s3-1.346,3-3C29,16.413,27.758,15.123,26.196,15.02z M26,19c-0.551,0-1-0.448-1-1s0.449-1,1-1s1,0.448,1,1   S26.551,19,26,19z"/>
	<path style="fill:#566164;" d="M43.196,15.98l-0.393-1.961l-5,1l0,0C36.242,15.123,35,16.413,35,18c0,1.654,1.346,3,3,3   s3-1.346,3-3c0-0.548-0.158-1.055-0.416-1.497L43.196,15.98z M38,19c-0.551,0-1-0.448-1-1s0.449-1,1-1s1,0.448,1,1S38.551,19,38,19   z"/>
</g>
</svg>
