<?xml version="1.0" encoding="iso-8859-1"?>
<!-- Generator: Adobe Illustrator 22.1.0, SVG Export Plug-In . SVG Version: 6.00 Build 0)  -->
<svg xmlns="http://www.w3.org/2000/svg" xmlns:xlink="http://www.w3.org/1999/xlink" version="1.1" id="Layer_3" x="0px" y="0px" viewBox="0 0 64 64" style="enable-background:new 0 0 64 64;" xml:space="preserve" width="512" height="512">
<g>
	<path style="fill:#408A81;" d="M43.992,25.988C41.26,29.637,36.91,32,32,32c-4.91,0-9.26-2.363-11.992-6.012l0.001-0.001L16,32   l-9,5c-2.761,0-5,2.238-5,5C2,44.703,4.297,47,7,47c2.761,0,5-2.239,5-5l10-2l-3.881,16.495C18.04,56.831,18,57.174,18,57.519   v0.012C18,59.999,20.001,62,22.469,62h0c1.57,0,3.025-0.824,3.833-2.17L28,57h8l1.698,2.83c0.808,1.346,2.263,2.17,3.833,2.17h0   C43.999,62,46,59.999,46,57.531v-0.012c0-0.345-0.04-0.688-0.119-1.024L42,40l10,2c0,2.761,2.238,5,5,5c2.703,0,5.001-2.297,5-5   c0-2.761-2.239-5-5-5l-9-5l-4.009-6.013L43.992,25.988z"/>
	<path style="fill:#CCAC71;" d="M57,47l5,8l-1.586,1.586C59.509,57.491,58.281,58,57,58h0c-1.281,0-2.509-0.509-3.414-1.414   l-1.172-1.172C51.509,54.509,50.281,54,49,54h0c-1.265,0-2.479,0.496-3.381,1.381L42,40l10,2C52,44.761,54.238,47,57,47z"/>
	<path style="fill:#CCAC71;" d="M7,47l-5,8l1.586,1.586C4.491,57.491,5.719,58,7,58h0c1.281,0,2.509-0.509,3.414-1.414l1.172-1.172   C12.491,54.509,13.719,54,15,54h0c1.265,0,2.479,0.496,3.381,1.381L22,40l-10,2C12,44.761,9.762,47,7,47z"/>
	<path style="fill:#9C5C95;" d="M41.531,62C43.999,62,46,59.999,46,57.531v-0.012c0-0.345-0.04-0.688-0.119-1.024l-0.307-1.306   l-8.416,3.74l0.54,0.9C38.506,61.176,39.961,62,41.531,62L41.531,62z"/>
	<path style="fill:#9C5C95;" d="M26.302,59.83l0.54-0.9l-8.416-3.74l-0.307,1.306C18.04,56.831,18,57.174,18,57.519v0.012   C18,59.999,20.001,62,22.469,62C24.039,62,25.494,61.176,26.302,59.83z"/>
	<path style="fill:#EDD07A;" d="M20.009,25.987L16,32l13,3v-3.313C25.341,30.942,22.168,28.871,20.009,25.987z"/>
	<path style="fill:#EDD07A;" d="M35,31.687V35l13-3l-4.009-6.013C41.832,28.871,38.659,30.942,35,31.687z"/>
	<path style="fill:#408A81;" d="M49,13l-2.704-0.541C44.372,6.395,38.701,2,32,2c-6.701,0-12.372,4.395-14.296,10.459L15,13l1,9   h1.872c2.061,5.822,7.6,10,14.128,10c6.528,0,12.067-4.178,14.128-10H48L49,13z"/>
	<path style="fill:#9C5C95;" d="M37.969,10L37.969,10c-0.64,0-1.274,0.122-1.869,0.36L32,12l-4.1-1.64   C27.305,10.122,26.671,10,26.031,10h0C23.253,10,21,12.253,21,15.031v0.446c0,0.993,0.294,1.964,0.845,2.791L23,20l-2,3v4.166   C23.736,30.134,27.644,32,32,32s8.264-1.866,11-4.834V23l-2-3l1.155-1.733C42.706,17.441,43,16.47,43,15.477v-0.446   C43,12.253,40.747,10,37.969,10z"/>
	<path style="fill:#9C5C95;" d="M14,37l-3.684-1.842L7,37c-2.761,0-5,2.238-5,5C2,44.703,4.297,47,7,47c2.761,0,5-2.239,5-5l2-0.4   V37z"/>
	<path style="fill:#9C5C95;" d="M57,37l-3.316-1.842L50,37v4.6l2,0.4c0,2.761,2.238,5,5,5c2.703,0,5.001-2.297,5-5   C62,39.238,59.761,37,57,37z"/>
	<path style="fill:#EDD07A;" d="M19.657,49.957l3.924,0.49c2.925,0.366,5.766,1.226,8.403,2.544L32,53l0.017-0.008   c2.636-1.318,5.478-2.179,8.403-2.544l3.924-0.49l-0.902-3.833L35,48h-6l-8.441-1.876L19.657,49.957z"/>
	<polyline style="fill:#9C5C95;" points="31,42 20.81,45.057 20.559,46.124 29,48 35,48 43.441,46.124 43.19,45.057 33,42  "/>
	<polygon style="fill:#EDD07A;" points="32,12 35,8 32,4 29,8  "/>
	<g>
		<rect x="31" y="42.263" style="fill:#814273;" width="2" height="5.737"/>
	</g>
	<polygon style="fill:#814273;" points="34.98,48 35,48 37.114,47.53 37.924,43.477 36,42.9  "/>
	<polygon style="fill:#814273;" points="26.886,47.53 29,48 29.02,48 28,42.9 26.076,43.477  "/>
	<path style="fill:#EDD07A;" d="M15.804,41.239L8.599,57.708c0.674-0.238,1.3-0.607,1.815-1.122l1.172-1.172   c0.096-0.096,0.208-0.168,0.311-0.255l6.3-14.399L15.804,41.239z"/>
	<path style="fill:#EDD07A;" d="M48.196,41.239l-2.392-0.478l6.3,14.399c0.103,0.087,0.215,0.159,0.311,0.255l1.172,1.172   c0.515,0.515,1.141,0.885,1.816,1.122L48.196,41.239z"/>
	<rect x="28" y="25" style="fill:#3B4546;" width="8" height="2"/>
	<path style="fill:#3B4546;" d="M31,19c0-1.583-1.236-2.87-2.793-2.979l-3.965-0.991l-0.485,1.94l1.715,0.429   C25.177,17.863,25,18.41,25,19c0,1.654,1.346,3,3,3S31,20.654,31,19z M27,19c0-0.551,0.449-1,1-1s1,0.449,1,1s-0.449,1-1,1   S27,19.551,27,19z"/>
	<path style="fill:#3B4546;" d="M40.243,16.97l-0.485-1.94l-3.965,0.991C34.236,16.13,33,17.417,33,19c0,1.654,1.346,3,3,3   s3-1.346,3-3c0-0.59-0.177-1.137-0.472-1.601L40.243,16.97z M36,20c-0.551,0-1-0.449-1-1s0.449-1,1-1s1,0.449,1,1S36.551,20,36,20z   "/>
	<polygon style="fill:#EDD07A;" points="32,44 35,40 32,36 29,40  "/>
</g>
</svg>
