<?xml version="1.0" encoding="iso-8859-1"?>
<!-- Generator: Adobe Illustrator 22.1.0, SVG Export Plug-In . SVG Version: 6.00 Build 0)  -->
<svg xmlns="http://www.w3.org/2000/svg" xmlns:xlink="http://www.w3.org/1999/xlink" version="1.1" id="Layer_3" x="0px" y="0px" viewBox="0 0 64 64" style="enable-background:new 0 0 64 64;" xml:space="preserve" width="512" height="512">
<g>
	
		<rect x="3.172" y="51.172" transform="matrix(0.7071 -0.7071 0.7071 0.7071 -36.4264 20.0589)" style="fill:#CA5057;" width="5.657" height="5.657"/>
	<g>
		<rect x="5" y="46" style="fill:#566164;" width="2" height="14"/>
	</g>
	<g>
		<rect x="5" y="30" style="fill:#566164;" width="2" height="8"/>
	</g>
	<path style="fill:#3B4546;" d="M47,52l0.881,4.495C47.96,56.831,48,57.174,48,57.519v0.012C48,59.999,45.999,62,43.531,62h0   c-1.57,0-3.025-0.824-3.833-2.17L37,55l-5-1l-5,1l-2.698,4.83C23.494,61.176,22.039,62,20.469,62h0C18.001,62,16,59.999,16,57.531   v-0.012c0-0.345,0.04-0.688,0.119-1.024L17,52h7l0.667-2h14.667L40,52H47z"/>
	<path style="fill:#566164;" d="M43.531,62C45.999,62,48,59.999,48,57.531v-0.012c0-0.345-0.04-0.688-0.119-1.024   c0,0-0.152-0.775-0.26-1.327l-8.433,3.748l0.51,0.914C40.506,61.176,41.961,62,43.531,62L43.531,62z"/>
	<path style="fill:#6F5C89;" d="M28,32h-1c-0.69,0-1.364-0.07-2.015-0.203C24.985,31.797,26,46,26,46l-1.333,4h14.667L38,46   l1.015-14.203C38.364,31.93,37.69,32,37,32h-1l-4,4L28,32z"/>
	<rect x="24" y="46" style="fill:#566164;" width="16" height="4"/>
	<path style="fill:#991D13;" d="M19,40l-7,2c0,2.761-2.238,5-5,5C4.297,47,2,44.703,2,42c0-2.761,2.239-5,5-5l10-4"/>
	<path style="fill:#991D13;" d="M45,40l7,2c0,2.761,2.238,5,5,5c2.703,0,5.001-2.297,5-5c0-2.761-2.239-5-5-5l-10-4"/>
	<path style="fill:#88C3F8;" d="M12,42l-4.242-5.303L7,37c-2.761,0-5,2.238-5,5C2,44.703,4.297,47,7,47C9.762,47,12,44.761,12,42   L12,42z"/>
	<path style="fill:#88C3F8;" d="M62,42c0-2.761-2.239-5-5-5l-0.758-0.303L52,42c0,2.761,2.238,5,5,5C59.703,47,62,44.703,62,42z"/>
	<path style="fill:#566164;" d="M16.379,55.168l-0.26,1.327C16.04,56.831,16,57.174,16,57.519v0.012C16,59.999,18.001,62,20.469,62   h0c1.57,0,3.025-0.824,3.832-2.17l0.51-0.914L16.379,55.168z"/>
	<polyline style="fill:#5BACF8;" points="28,32 32,36 36,32  "/>
	<polyline style="fill:#811E18;" points="21.509,29.898 16,31 19,40 19,44 15,52 24,52 26,46 24.97,31.586  "/>
	<polyline style="fill:#811E18;" points="42.417,29.883 48,31 45,40 45,44 49,52 40,52 38,46 39.058,31.191  "/>
	<path style="fill:#88C3F8;" d="M36,6h1c5.523,0,10,4.477,10,10v6c0,5.523-4.477,10-10,10H27c-5.523,0-10-4.477-10-10v-6   c0-5.523,4.477-10,10-10h1"/>
	<path style="fill:#CA5057;" d="M30,16c0,2.761-1.791,5-4,5s-4-2.239-4-5c0-1.156,0.314-2.221,0.841-3.068l0.001,0L30,16z"/>
	<path style="fill:#CA5057;" d="M34,16c0,2.761,1.791,5,4,5s4-2.239,4-5c0-1.156-0.314-2.221-0.841-3.068l-0.001,0L34,16z"/>
	<polygon style="fill:#CA5057;" points="29,2 35,2 37,9 27,9  "/>
	<g>
		<path style="fill:#3B4546;" d="M26.5,19c-0.827,0-1.5-0.673-1.5-1.5s0.673-1.5,1.5-1.5s1.5,0.673,1.5,1.5S27.327,19,26.5,19z"/>
	</g>
	<g>
		<path style="fill:#3B4546;" d="M37.5,19c-0.827,0-1.5-0.673-1.5-1.5s0.673-1.5,1.5-1.5s1.5,0.673,1.5,1.5S38.327,19,37.5,19z"/>
	</g>
	<g>
		<rect x="29" y="46" style="fill:#919191;" width="2" height="4"/>
	</g>
	<g>
		<rect x="33" y="46" style="fill:#919191;" width="2" height="4"/>
	</g>
	<polygon style="fill:#8367B9;" points="38.5,39 29.333,39 25.283,35.962 25.472,38.604 28.15,40.612 29.946,46 32.054,46    30.388,41 38.357,41  "/>
	<g>
		<rect x="31" y="29" style="fill:#4B88BA;" width="2" height="3"/>
	</g>
	<path style="fill:#4B88BA;" d="M29.555,28.832l-1.109-1.664l-3,2C25.167,29.354,25,29.666,25,30v1.799   C25.646,31.93,26.315,32,27,32v-1.465L29.555,28.832z"/>
	<path style="fill:#4B88BA;" d="M38.555,29.168l-3-2l-1.109,1.664L37,30.535V32c0.685,0,1.354-0.07,2-0.201V30   C39,29.666,38.833,29.354,38.555,29.168z"/>
	<g>
		<rect x="28" y="24" style="fill:#4B88BA;" width="8" height="2"/>
	</g>
	<polygon style="fill:#ABABAB;" points="3,31 6,23 9,31 6,30  "/>
</g>
</svg>
