<?xml version="1.0" encoding="iso-8859-1"?>
<!-- Generator: Adobe Illustrator 22.1.0, SVG Export Plug-In . SVG Version: 6.00 Build 0)  -->
<svg xmlns="http://www.w3.org/2000/svg" xmlns:xlink="http://www.w3.org/1999/xlink" version="1.1" id="Layer_3" x="0px" y="0px" viewBox="0 0 64 64" style="enable-background:new 0 0 64 64;" xml:space="preserve" width="512" height="512">
<g>
	<path style="fill:#707070;" d="M42,28l15,9c2.761,0,5,2.238,5,5c0,2.703-2.297,5.001-5,5c-2.761,0-5-2.239-5-5l-10-2l3.881,16.495   C45.96,56.831,46,57.174,46,57.519v0.012C46,59.999,43.999,62,41.531,62h0c-1.57,0-3.025-0.824-3.833-2.17L36,57h-8l-1.698,2.83   C25.494,61.176,24.039,62,22.469,62h0C20.001,62,18,59.999,18,57.531v-0.012c0-0.345,0.04-0.688,0.119-1.024L22,40l-10,2   c0,2.761-2.238,5-5,5C4.297,47,2,44.703,2,42c0-2.761,2.239-5,5-5l15-9"/>
	<path style="fill:#B9B9B9;" d="M15,13h-2v11l7.73,2.899C23.479,30.026,27.509,32,32,32s8.521-1.974,11.27-5.101l0,0L51,24V13h-2V4   c0-1.105-0.895-2-2-2h0c-1.105,0-2,0.895-2,2v5.513l0,0C42.409,5.022,37.557,2,32,2c-5.557,0-10.409,3.022-13,7.512l0,0V4   c0-1.105-0.895-2-2-2h0c-1.105,0-2,0.895-2,2V13z"/>
	<path style="fill:#919191;" d="M36,27l11-7v-7h4v11l-7.73,2.899l0,0C40.521,30.026,36.491,32,32,32s-8.521-1.974-11.27-5.101L13,24   V13h4v7l11,7"/>
	<polygon style="fill:#ABABAB;" points="17,20 13,19 13,24 20.158,26.684 21.931,23.138  "/>
	<polygon style="fill:#ABABAB;" points="47,20 51,19 51,24 43.842,26.684 42.069,23.138  "/>
	<polyline style="fill:#919191;" points="30.5,25 28,20 30,17 34,17 36,20 33.559,25  "/>
	<rect x="27" y="46" style="fill:#B9B9B9;" width="10" height="4"/>
	<path style="fill:#CA5057;" d="M46,57.519c0-0.345-0.04-0.688-0.119-1.024L43.412,46H35l2,5l4,2l3.075,8.199   C45.236,60.392,46,59.052,46,57.531V57.519z"/>
	<path style="fill:#CA5057;" d="M27,51l2-5h-8.412l-2.469,10.495C18.04,56.831,18,57.174,18,57.519v0.012   c0,1.522,0.764,2.862,1.925,3.669L23,53L27,51z"/>
	<polygon style="fill:#B9B9B9;" points="42.941,44 39,44 40,48 43.882,48  "/>
	<polygon style="fill:#B9B9B9;" points="20.118,48 24,48 25,44 21.059,44  "/>
	<path style="fill:#DC6068;" d="M29,39v4c0,1.657,1.343,3,3,3h0c1.657,0,3-1.343,3-3v-4"/>
	<polygon style="fill:#CA5057;" points="32,40 38,39 38,35 32,36 26,35 26,39  "/>
	<path style="fill:#CA5057;" d="M45.092,35.077l-5.895-4.913c1.061-0.581,2.044-1.287,2.929-2.097l-0.006,0.005   c0,0,3.998,2.399,3.998,2.399l-1.023,4.603"/>
	<path style="fill:#CA5057;" d="M24.802,30.165c0,0-5.896,4.913-5.896,4.913c0,0-1.024-4.608-1.024-4.608   c0,0,3.998-2.399,3.998-2.399c0.883,0.808,1.863,1.511,2.921,2.091"/>
	<polygon style="fill:#B9B9B9;" points="43.915,40.383 50.205,41.641 53.915,35.149 46.118,30.471  "/>
	<polygon style="fill:#B9B9B9;" points="13.795,41.641 20.085,40.383 17.882,30.471 10.085,35.149  "/>
	<path style="fill:#919191;" d="M24,4.309l0,9.091l2-0.4l2,2c0,0,0-12.461,0-12.461C26.57,2.934,25.225,3.535,24,4.309z"/>
	<path style="fill:#919191;" d="M40,4.309V13.4L38,13l-2,2c0,0,0-12.461,0-12.461C37.43,2.934,38.775,3.535,40,4.309z"/>
	<polygon style="fill:#CA5057;" points="28,20 30,17 26,13 21,14 21,18 24,20  "/>
	<polygon style="fill:#CA5057;" points="36,20 34,17 38,13 43,14 43,18 40,20  "/>
	<g>
		<rect x="31" y="17" style="fill:#ABABAB;" width="2" height="8"/>
	</g>
	<g>
		<polygon style="fill:#B9B9B9;" points="25,58 21.125,58 21.875,56 25,56   "/>
	</g>
	<g>
		<polygon style="fill:#B9B9B9;" points="42.875,58 39,58 39,56 42.125,56   "/>
	</g>
	<circle style="fill:#939FA5;" cx="32" cy="28" r="4"/>
	<g>
		<circle style="fill:#ABABAB;" cx="32" cy="28" r="2"/>
	</g>
</g>
</svg>
