<?xml version="1.0" encoding="iso-8859-1"?>
<!-- Generator: Adobe Illustrator 22.1.0, SVG Export Plug-In . SVG Version: 6.00 Build 0)  -->
<svg xmlns="http://www.w3.org/2000/svg" xmlns:xlink="http://www.w3.org/1999/xlink" version="1.1" id="Layer_3" x="0px" y="0px" viewBox="0 0 64 64" style="enable-background:new 0 0 64 64;" xml:space="preserve" width="512" height="512">
<g>
	<path style="fill:#B9B9B9;" d="M58.065,37.114L54,30c0,0-3.852,2.889-3.852,2.889L57,37C57.366,37,57.722,37.039,58.065,37.114z"/>
	<path style="fill:#B9B9B9;" d="M5.935,37.114L10,30c0,0,3.852,2.889,3.852,2.889L7,37C6.634,37,6.278,37.039,5.935,37.114z"/>
	<path style="fill:#4A4A4A;" d="M42,28l15,9c2.761,0,5,2.238,5,5c0,2.703-2.297,5.001-5,5c-2.761,0-5-2.239-5-5l-10-2l3.881,16.495   C45.96,56.831,46,57.174,46,57.519v0.012C46,59.999,43.999,62,41.531,62h0c-1.57,0-3.025-0.824-3.833-2.17L35,54h-6l-2.698,5.83   C25.494,61.176,24.039,62,22.469,62h0C20.001,62,18,59.999,18,57.531v-0.012c0-0.345,0.04-0.688,0.119-1.024L22,40l-10,2   c0,2.761-2.238,5-5,5C4.297,47,2,44.703,2,42c0-2.761,2.239-5,5-5l15-9"/>
	<polygon style="fill:#ABABAB;" points="32,43 34,38 32,35 30,38  "/>
	<path style="fill:#707070;" d="M22.657,32.242l-2.898-2.898l-1.768,1.061l3.302,3.302c0.033,0.033,0.069,0.064,0.107,0.093l4,3   c0.119,0.09,0.257,0.151,0.403,0.181l4.302,0.86l1.2-1.799l-4.887-0.978L22.657,32.242z"/>
	<g>
		
			<rect x="22.265" y="33.294" transform="matrix(0.6403 -0.7681 0.7681 0.6403 -16.5993 33.1439)" style="fill:#ABABAB;" width="9.646" height="2.001"/>
	</g>
	<g>
		
			<rect x="18.751" y="30.985" transform="matrix(0.7071 -0.7071 0.7071 0.7071 -15.8757 25.6423)" style="fill:#ABABAB;" width="8.528" height="2"/>
	</g>
	<path style="fill:#707070;" d="M44.241,29.345l-2.898,2.898l-3.762,2.821l-4.887,0.978l1.2,1.799l4.302-0.86   c0.146-0.029,0.284-0.091,0.403-0.181l4-3c0.038-0.028,0.074-0.06,0.107-0.093l3.302-3.302L44.241,29.345z"/>
	<g>
		
			<rect x="35.912" y="29.472" transform="matrix(0.7682 -0.6402 0.6402 0.7682 -13.3998 31.582)" style="fill:#ABABAB;" width="2.001" height="9.646"/>
	</g>
	<g>
		
			<rect x="39.985" y="27.721" transform="matrix(0.7071 -0.7071 0.7071 0.7071 -10.6125 38.3488)" style="fill:#ABABAB;" width="2" height="8.528"/>
	</g>
	<path style="fill:#707070;" d="M4.263,46.149c0.554,0.372,1.182,0.632,1.851,0.758l1.814-4.536l-1.857-0.742L4.263,46.149z"/>
	<polygon style="fill:#707070;" points="16.006,41.199 17.993,40.801 14.81,32.314 13.066,33.36  "/>
	<path style="fill:#707070;" d="M29.599,53.887l-6.341,1.057L19.2,51.901l-0.5,2.124l3.7,2.775c0.174,0.131,0.385,0.2,0.6,0.2   c0.055,0,0.109-0.005,0.164-0.014l4.826-0.804L29,54h0.617L29.599,53.887z"/>
	<path style="fill:#707070;" d="M23,58h-2v3.733C21.462,61.895,21.952,62,22.469,62c0.179,0,0.356-0.014,0.531-0.035V58z"/>
	<path style="fill:#707070;" d="M10.934,34.64l-1.73,1.038l2.78,6.487C11.985,42.109,12,42.057,12,42l1.923-0.385L10.934,34.64z"/>
	<path style="fill:#707070;" d="M57.886,46.907c0.669-0.127,1.297-0.386,1.851-0.758l-1.808-4.52l-1.857,0.742L57.886,46.907z"/>
	<polygon style="fill:#707070;" points="46.006,40.801 47.994,41.199 50.933,33.36 49.189,32.313  "/>
	<path style="fill:#707070;" d="M45.3,54.025L44.8,51.9l-4.058,3.043l-5.578-0.93l-0.042,0.251l0.887,1.918l4.826,0.804   C40.891,56.995,40.945,57,41,57c0.215,0,0.426-0.069,0.6-0.2L45.3,54.025z"/>
	<path style="fill:#707070;" d="M43,58h-2v3.965C41.175,61.986,41.352,62,41.531,62h0c0.518,0,1.007-0.105,1.469-0.267V58z"/>
	<path style="fill:#707070;" d="M53.067,34.64l-2.99,6.975L52,42c0,0.057,0.015,0.109,0.017,0.166l2.78-6.487L53.067,34.64z"/>
	<g>
		<path style="fill:#707070;" d="M32,48c-0.153,0-0.307-0.035-0.447-0.105l-4-2c-0.261-0.131-0.452-0.369-0.522-0.652l-1-4    l1.939-0.484l0.889,3.554L32,45.882l3.142-1.57l0.889-3.554l1.939,0.484l-1,4c-0.07,0.283-0.262,0.521-0.522,0.652l-4,2    C32.307,47.965,32.153,48,32,48z"/>
	</g>
	<path style="fill:#707070;" d="M42.482,42.047l-4.106,5.133L32,49.912l-6.376-2.732l-4.106-5.133l-0.582,2.475l3.283,4.103   c0.104,0.128,0.236,0.229,0.388,0.294l7,3C31.731,51.973,31.866,52,32,52s0.269-0.027,0.394-0.081l7-3   c0.151-0.064,0.284-0.166,0.388-0.294l3.283-4.103L42.482,42.047z"/>
	<path style="fill:#4A4A4A;" d="M47,17l1-15c0,0-8.649,1.922-8.649,1.922C43.917,6.494,47,11.387,47,17z"/>
	<path style="fill:#4A4A4A;" d="M17,17L16,2c0,0,8.649,1.922,8.649,1.922C20.083,6.494,17,11.387,17,17z"/>
	<circle style="fill:#707070;" cx="32" cy="17" r="15"/>
	<path style="fill:#B9B9B9;" d="M29,16c0,2.761-1.791,5-4,5s-4-2.239-4-5c0-1.156,0.314-2.221,0.841-3.068l0.001,0L29,16z"/>
	<path style="fill:#B9B9B9;" d="M35,16c0,2.761,1.791,5,4,5s4-2.239,4-5c0-1.156-0.314-2.221-0.841-3.068l-0.001,0L35,16z"/>
	<path style="fill:#4A4A4A;" d="M27.895,23.553c-0.144-0.287-0.417-0.488-0.734-0.54c-0.323-0.054-0.642,0.053-0.867,0.28   l-1.563,1.562l-6.62-2.206c0.366,0.899,0.816,1.753,1.341,2.555l5.233,1.745c0.358,0.123,0.756,0.025,1.023-0.241l1.019-1.019   L28,28.236v3.208c0.65,0.18,1.317,0.316,2,0.407V28c0-0.155-0.036-0.309-0.105-0.447L27.895,23.553z"/>
	<path style="fill:#4A4A4A;" d="M45.891,22.649l-6.62,2.206l-1.563-1.562c-0.227-0.228-0.547-0.332-0.867-0.28   c-0.317,0.052-0.591,0.253-0.734,0.54l-2,4C34.036,27.691,34,27.845,34,28v3.851c0.683-0.091,1.35-0.228,2-0.407v-3.208   l1.274-2.548l1.019,1.019c0.268,0.267,0.664,0.364,1.023,0.241l5.233-1.745C45.075,24.402,45.525,23.548,45.891,22.649z"/>
	<path style="fill:#4A4A4A;" d="M32.93,2.047L32,4.837l-0.93-2.79c-0.687,0.042-1.366,0.116-2.025,0.247l2.007,6.022   C31.187,8.725,31.569,9,32,9s0.812-0.275,0.948-0.684l2.007-6.022C34.296,2.163,33.617,2.089,32.93,2.047z"/>
	<path style="fill:#4A4A4A;" d="M26,3.256V8c0,0.197,0.059,0.391,0.168,0.555L28,11.303V16h2v-5c0-0.197-0.059-0.391-0.168-0.555   L28,7.697V2.556C27.313,2.746,26.644,2.975,26,3.256z"/>
	<path style="fill:#4A4A4A;" d="M22,5.842V9c0,0.266,0.105,0.52,0.293,0.707L24,11.414V14h2v-3c0-0.266-0.105-0.52-0.293-0.707   L24,8.586V4.327C23.29,4.776,22.623,5.283,22,5.842z"/>
	<path style="fill:#4A4A4A;" d="M36,2.556v5.141l-1.832,2.748C34.059,10.609,34,10.803,34,11v5h2v-4.697l1.832-2.748   C37.941,8.391,38,8.197,38,8V3.256C37.356,2.975,36.687,2.746,36,2.556z"/>
	<path style="fill:#4A4A4A;" d="M40,4.327v4.259l-1.707,1.707C38.105,10.48,38,10.734,38,11v3h2v-2.586l1.707-1.707   C41.895,9.52,42,9.266,42,9V5.842C41.377,5.283,40.71,4.776,40,4.327z"/>
	<g>
		<path style="fill:#4A4A4A;" d="M34,23c-0.152,0-0.306-0.035-0.447-0.105L32,22.118l-1.553,0.776    c-0.322,0.16-0.704,0.136-1.002-0.062l-3-2l1.109-1.664l2.518,1.678l1.48-0.74c0.281-0.141,0.613-0.141,0.895,0l1.48,0.74    l2.518-1.678l1.109,1.664l-3,2C34.388,22.943,34.194,23,34,23z"/>
	</g>
	<g>
		<path style="fill:#4A4A4A;" d="M34.684,16.948L32,16.054l-2.684,0.895l-0.633-1.896l3-1c0.205-0.068,0.428-0.068,0.633,0l3,1    L34.684,16.948z"/>
	</g>
	<g>
		<path style="fill:#4A4A4A;" d="M25,22c-2.757,0-5-2.691-5-6c0-1.309,0.344-2.553,0.993-3.597c0.26-0.42,0.793-0.584,1.242-0.391    l7.158,3.068C29.762,15.238,30,15.6,30,16C30,19.309,27.757,22,25,22z M22.316,14.224C22.11,14.773,22,15.382,22,16    c0,2.206,1.346,4,3,4c1.49,0,2.73-1.456,2.961-3.357L22.316,14.224z"/>
	</g>
	<g>
		<path style="fill:#4A4A4A;" d="M39,22c-2.757,0-5-2.691-5-6c0-0.4,0.238-0.762,0.606-0.919l7.158-3.067    c0.453-0.192,0.98-0.03,1.242,0.391C43.656,13.447,44,14.69,44,16C44,19.309,41.757,22,39,22z M36.039,16.643    C36.27,18.544,37.51,20,39,20c1.654,0,3-1.794,3-4c0-0.628-0.107-1.229-0.315-1.777L36.039,16.643z"/>
	</g>
</g>
</svg>
