<?xml version="1.0" encoding="iso-8859-1"?>
<!-- Generator: Adobe Illustrator 22.1.0, SVG Export Plug-In . SVG Version: 6.00 Build 0)  -->
<svg xmlns="http://www.w3.org/2000/svg" xmlns:xlink="http://www.w3.org/1999/xlink" version="1.1" id="Layer_3" x="0px" y="0px" viewBox="0 0 64 64" style="enable-background:new 0 0 64 64;" xml:space="preserve" width="512" height="512">
<g>
	<path style="fill:#1F5078;" d="M42,28l15,9c2.761,0,5,2.238,5,5c0,2.703-2.297,5.001-5,5c-2.761,0-5-2.239-5-5l-10-2l3.881,16.495   C45.96,56.831,46,57.174,46,57.519v0.012C46,59.999,43.999,62,41.531,62h0c-1.57,0-3.025-0.824-3.833-2.17L36,57h-8l-1.698,2.83   C25.494,61.176,24.039,62,22.469,62h0C20.001,62,18,59.999,18,57.531v-0.012c0-0.345,0.04-0.688,0.119-1.024L22,40l-10,2   c0,2.761-2.238,5-5,5C4.297,47,2,44.703,2,42c0-2.761,2.239-5,5-5l15-9"/>
	<path style="fill:#D2A95C;" d="M45.97,57H56l-9-16l-5-1l3.881,16.495C45.92,56.662,45.95,56.83,45.97,57z"/>
	<path style="fill:#CA5057;" d="M43.761,40.352L42,40l3.529,15H52C52,55,45.035,42.619,43.761,40.352z"/>
	<path style="fill:#D2A95C;" d="M18.03,57H8l9-16l5-1l-3.881,16.495C18.08,56.662,18.05,56.83,18.03,57z"/>
	<path style="fill:#CA5057;" d="M20.239,40.352L22,40l-3.529,15H12C12,55,18.965,42.619,20.239,40.352z"/>
	<path style="fill:#3777AC;" d="M30,52.429V48l-2-2v-7.5l2-1.5c0,1.105,0.895,2,2,2c1.105,0,2-0.895,2-2l2,1.5V46l-2,2l0,4.429   L32,52L30,52.429z"/>
	<polygon style="fill:#3777AC;" points="18.496,54.894 20.462,46.538 23,44 24,47 24,53.714  "/>
	<polygon style="fill:#3777AC;" points="45.504,54.894 43.538,46.538 41,44 40,47 40,53.714  "/>
	<polygon style="fill:#3777AC;" points="48.944,32.167 46.062,40.812 52,42 52,42 55.81,36.286  "/>
	<polygon style="fill:#3777AC;" points="15.056,32.167 8.19,36.286 12,42 12,42 17.937,40.812  "/>
	<path style="fill:#D8C4A9;" d="M57,37l-1.19-0.714L52,42l0,0c0,2.761,2.238,5,5,5c2.703,0,5.001-2.297,5-5   C62,39.238,59.761,37,57,37z"/>
	<path style="fill:#D8C4A9;" d="M8.19,36.286L7,37c-2.761,0-5,2.238-5,5C2,44.703,4.297,47,7,47c2.761,0,5-2.239,5-5l0,0   L8.19,36.286z"/>
	<polyline style="fill:#D2A95C;" points="22,28 18.901,29.859 26,40 32,35.5 38,40 45.099,29.859 42,28  "/>
	<polyline style="fill:#DC6068;" points="22,28 21.167,28.5 27,36 32,32.5 37,36 42.833,28.5 42,28  "/>
	<circle style="fill:#B89148;" cx="32" cy="37" r="2"/>
	<path style="fill:#B89148;" d="M42.12,28.072l3.017,1.81C45.137,29.882,59,18,59,18s-12.033,0-12.033,0   C46.705,21.982,44.889,25.54,42.12,28.072z"/>
	<path style="fill:#CA5057;" d="M46.683,20c-0.644,3.165-2.268,5.973-4.563,8.072l0.86,0.516C46.996,25.146,53,20,53,20   S49.788,20,46.683,20z"/>
	<path style="fill:#B89148;" d="M21.88,28.072l-3.017,1.81C18.863,29.882,5,18,5,18s12.033,0,12.033,0   C17.295,21.982,19.111,25.54,21.88,28.072z"/>
	<path style="fill:#CA5057;" d="M21.02,28.588l0.86-0.516c-2.295-2.099-3.919-4.907-4.563-8.072C14.212,20,11,20,11,20   S17.004,25.146,21.02,28.588z"/>
	<circle style="fill:#D8C4A9;" cx="32" cy="17" r="15"/>
	<ellipse style="fill:#E4CFB6;" cx="30.5" cy="17" rx="13.5" ry="14.924"/>
	<path style="fill:#3B4546;" d="M32,2c-7.929,0-14.404,6.156-14.947,13.947l5.179-5.179C23.364,9.636,24.899,9,26.5,9   s3.136,0.636,4.268,1.768L32,12l1.232-1.232C34.364,9.636,35.899,9,37.5,9s3.136,0.636,4.268,1.768l5.179,5.179   C46.404,8.156,39.929,2,32,2z"/>
	<path style="fill:#566164;" d="M43.198,12.198C41.347,6.727,36.441,2.666,30.5,2.076c-0.883,0.088-1.741,0.259-2.573,0.493   c-0.061,0.017-0.125,0.028-0.185,0.046c-0.202,0.06-0.396,0.138-0.595,0.206c-0.244,0.084-0.492,0.159-0.73,0.255   c-0.135,0.054-0.264,0.122-0.397,0.18c-0.293,0.128-0.588,0.254-0.871,0.4c-0.089,0.046-0.173,0.101-0.261,0.148   c-0.32,0.173-0.639,0.35-0.944,0.546c-0.049,0.032-0.095,0.068-0.144,0.1c-0.339,0.222-0.672,0.453-0.991,0.702   c-0.016,0.012-0.03,0.026-0.045,0.038c-3.239,2.544-5.406,6.393-5.71,10.756l5.179-5.179C23.364,9.636,24.899,9,26.5,9   s3.136,0.636,4.268,1.768L32,12l1.232-1.232C34.364,9.636,35.899,9,37.5,9s3.136,0.636,4.268,1.768L43.198,12.198z"/>
	<g>
		<path style="fill:#B8A490;" d="M27,21c-1.654,0-3-1.346-3-3s1.346-3,3-3s3,1.346,3,3S28.654,21,27,21z M27,17    c-0.552,0-1,0.449-1,1s0.448,1,1,1s1-0.449,1-1S27.552,17,27,17z"/>
	</g>
	<g>
		<path style="fill:#B8A490;" d="M37,21c-1.654,0-3-1.346-3-3s1.346-3,3-3s3,1.346,3,3S38.654,21,37,21z M37,17    c-0.552,0-1,0.449-1,1s0.448,1,1,1s1-0.449,1-1S37.552,17,37,17z"/>
	</g>
	<path style="fill:#566164;" d="M38,23H26c-0.29,0-0.565,0.126-0.756,0.345c-0.189,0.219-0.275,0.51-0.234,0.797l0.939,6.577   c0.683,0.302,1.395,0.546,2.127,0.745L27.153,25h9.693l-0.924,6.464c0.732-0.198,1.444-0.443,2.127-0.745l0.94-6.578   c0.041-0.287-0.045-0.578-0.234-0.797C38.565,23.126,38.29,23,38,23z"/>
	<g>
		<rect x="29" y="27" style="fill:#B8A490;" width="6" height="2"/>
	</g>
</g>
</svg>
