<?xml version="1.0" encoding="iso-8859-1"?>
<!-- Generator: Adobe Illustrator 22.1.0, SVG Export Plug-In . SVG Version: 6.00 Build 0)  -->
<svg xmlns="http://www.w3.org/2000/svg" xmlns:xlink="http://www.w3.org/1999/xlink" version="1.1" id="Layer_3" x="0px" y="0px" viewBox="0 0 64 64" style="enable-background:new 0 0 64 64;" xml:space="preserve" width="512" height="512">
<g>
	<path style="fill:#919191;" d="M46.951,24.893c3.326-7.206,5.365-14.939,6.024-22.849L52.978,2l7,7v0.27   c0,4.377-1.368,8.644-3.912,12.206l-0.644,0.902c-2.977,1.631-6.071,3.04-9.257,4.216L46.951,24.893z"/>
	<path style="fill:#B9B9B9;" d="M49.951,24.893c2.951-6.393,4.882-13.201,5.742-20.178L59.978,9v0.27   c0,4.377-1.368,8.644-3.912,12.206l-0.644,0.902c-1.812,0.993-3.673,1.893-5.566,2.719L49.951,24.893z"/>
	<path style="fill:#CA5057;" d="M41.97,27.968l0.128-0.038c6.551-1.941,12.778-4.845,18.476-8.617L61,19.032l-3.034,9.99l-0.1,0.05   c-2.59,1.284-5.357,2.174-8.211,2.639l-1.961,0.32"/>
	<path style="fill:#B9B9B9;" d="M57.966,29.022l-0.1,0.049c-2.59,1.284-5.357,2.174-8.211,2.64l-1.961,0.32l-2.842-2.017   c5.284-1.81,10.327-4.26,15.026-7.289L57.966,29.022z"/>
	<path style="fill:#919191;" d="M17.028,24.893c-3.326-7.206-5.365-14.939-6.024-22.849L11,2L4,9v0.27   c0,4.377,1.368,8.644,3.912,12.206l0.644,0.902c2.977,1.631,6.071,3.04,9.257,4.216L17.028,24.893z"/>
	<path style="fill:#B9B9B9;" d="M14.028,24.893C11.077,18.5,9.145,11.692,8.285,4.715L4,9v0.27c0,4.377,1.368,8.644,3.912,12.206   l0.644,0.902c1.812,0.993,3.673,1.893,5.566,2.719L14.028,24.893z"/>
	<path style="fill:#CA5057;" d="M22.008,27.968L21.88,27.93c-6.551-1.941-12.778-4.845-18.476-8.617l-0.425-0.282l3.034,9.99   l0.1,0.05c2.59,1.284,5.357,2.174,8.211,2.639l1.961,0.32"/>
	<path style="fill:#B9B9B9;" d="M6.012,29.022l0.1,0.049c2.59,1.284,5.357,2.174,8.211,2.64l1.961,0.32l2.842-2.017   c-5.284-1.81-10.327-4.26-15.026-7.289L6.012,29.022z"/>
	<path style="fill:#CA5057;" d="M43.625,47h3.353l3,3c0,0,6.146-3.073,6.146-3.073c-2.354-0.405-4.146-2.457-4.146-4.927l-10-2   L43.625,47z"/>
	<path style="fill:#B9B9B9;" d="M49.978,50l-3-3h-3.353c0,0-0.569-2.417-1.055-4.482L49.978,44c0,2.021,1.208,3.745,2.933,4.533   C51.423,49.278,49.978,50,49.978,50z"/>
	<path style="fill:#B9B9B9;" d="M50.311,33h9.667l-2.048,4.096C57.621,37.036,57.304,37,56.978,37L50.311,33z"/>
	<path style="fill:#876440;" d="M42,28l15,9c2.761,0,5,2.238,5,5c0,2.703-2.297,5.001-5,5c-2.761,0-5-2.239-5-5l-10-2l3.881,16.495   C45.96,56.831,46,57.174,46,57.519v0.012C46,59.999,43.999,62,41.531,62h0c-1.57,0-3.025-0.824-3.833-2.17L36,57h-8l-1.698,2.83   C25.494,61.176,24.039,62,22.469,62h0C20.001,62,18,59.999,18,57.531v-0.012c0-0.345,0.04-0.688,0.119-1.024L22,40l-10,2   c0,2.761-2.238,5-5,5C4.297,47,2,44.703,2,42c0-2.761,2.239-5,5-5l15-9"/>
	<path style="fill:#CA5057;" d="M20.353,47H17l-3,3c0,0-6.146-3.073-6.146-3.073C10.209,46.522,12,44.47,12,42l10-2L20.353,47z"/>
	<path style="fill:#B9B9B9;" d="M14,50l3-3h3.353c0,0,0.569-2.417,1.055-4.482L14,44c0,2.021-1.208,3.745-2.933,4.533   C12.555,49.278,14,50,14,50z"/>
	<path style="fill:#566164;" d="M20.811,45.054L28,43h8c0,0,7.189,2.054,7.189,2.054l2.692,11.441C45.96,56.831,46,57.174,46,57.519   v0.012C46,59.999,43.999,62,41.531,62h0c-1.57,0-3.025-0.824-3.833-2.17L36,57h-8l-1.698,2.83C25.494,61.176,24.039,62,22.469,62h0   C20.001,62,18,59.999,18,57.531v-0.012c0-0.345,0.04-0.688,0.119-1.024L20.811,45.054z"/>
	<polygon style="fill:#919191;" points="27,51 25,49 19.882,49 18.235,56 23,56  "/>
	<polygon style="fill:#919191;" points="45.765,56 44.118,49 39,49 37,51 41,56  "/>
	<polygon style="fill:#919191;" points="29,47 35,47 33,52 31,52  "/>
	<path style="fill:#CA5057;" d="M23.887,29.619L22,40l-1.189,5.054L28,43h8l7.189,2.054C43.189,45.054,42,40,42,40l-1.887-10.381   C37.774,31.126,34.989,32,32,32C29.011,32,26.226,31.126,23.887,29.619z"/>
	<path style="fill:#919191;" d="M41.231,35.769l-2.096,2.096C38.408,38.592,37.423,39,36.395,39h0c-1.468,0-2.81,0.829-3.466,2.142   L32,43l-0.929-1.858C30.415,39.829,29.073,39,27.605,39h0c-1.028,0-2.013-0.408-2.74-1.135c0,0-2.096-2.096-2.096-2.096   l1.118-6.152l-0.001,0.001C26.226,31.126,29.011,32,32,32c2.989,0,5.774-0.874,8.113-2.381   C40.113,29.619,41.231,35.769,41.231,35.769z"/>
	<path style="fill:#566164;" d="M50.205,41.641L52,42c0,2.761,2.238,5,5,5c2.703,0,5.001-2.297,5-5c0-2.761-2.239-5-5-5   l-3.085-1.851L50.205,41.641z"/>
	<path style="fill:#566164;" d="M10.085,35.149L7,37c-2.761,0-5,2.238-5,5C2,44.703,4.297,47,7,47c2.761,0,5-2.239,5-5l1.795-0.359   L10.085,35.149z"/>
	<path style="fill:#B9B9B9;" d="M13.667,33H4l2.048,4.096C6.357,37.036,6.674,37,7,37L13.667,33z"/>
	<circle style="fill:#664C37;" cx="32" cy="17" r="15"/>
	<ellipse style="fill:#876440;" cx="30.5" cy="17" rx="13.5" ry="14.924"/>
	<path style="fill:#3B4546;" d="M26.946,31.108C28.527,31.675,30.224,32,32,32c1.776,0,3.473-0.325,5.054-0.892L35,27h-6   L26.946,31.108z"/>
	<path style="fill:#3B4546;" d="M46.851,15C45.871,7.664,39.604,2,32,2S18.129,7.664,17.149,15h4.033   c0.481-2.616,1.887-4.908,3.866-6.525l0,0C26.425,9.983,29.023,11,32,11s5.575-1.017,6.952-2.525l0,0   c1.98,1.616,3.386,3.909,3.866,6.525H46.851z"/>
	<path style="fill:#CA5057;" d="M46.851,15H36l-4,4l-4-4H17.149C17.061,15.656,17,16.32,17,17c0,2.383,0.57,4.627,1.559,6.628L21,22   l5,4l6-4l6,4l5-4l2.441,1.628C46.43,21.627,47,19.383,47,17C47,16.32,46.939,15.656,46.851,15z"/>
	<path style="fill:#DC6068;" d="M32,19l-4-4H17.149C17.061,15.656,17,16.32,17,17c0,2.383,0.57,4.627,1.559,6.628L21,22l5,4l6-4l6,4   l5-4l0.103,0.069C43.673,20.483,44,18.782,44,17c0-0.68-0.061-1.344-0.149-2H36L32,19z"/>
	<circle style="fill:#566164;" cx="26" cy="20" r="2"/>
	<circle style="fill:#566164;" cx="38" cy="20" r="2"/>
	<g>
		<rect x="31" y="32" style="fill:#566164;" width="2" height="11"/>
	</g>
</g>
</svg>
