<?xml version="1.0" encoding="iso-8859-1"?>
<!-- Generator: Adobe Illustrator 22.1.0, SVG Export Plug-In . SVG Version: 6.00 Build 0)  -->
<svg xmlns="http://www.w3.org/2000/svg" xmlns:xlink="http://www.w3.org/1999/xlink" version="1.1" id="Layer_3" x="0px" y="0px" viewBox="0 0 64 64" style="enable-background:new 0 0 64 64;" xml:space="preserve" width="512" height="512">
<g>
	<path style="fill:#8E7761;" d="M42,28l15,9c2.761,0,5,2.238,5,5c0,2.703-2.297,5.001-5,5c-2.761,0-5-2.239-5-5l-10-2l3.881,16.495   C45.96,56.831,46,57.174,46,57.519v0.012C46,59.999,43.999,62,41.531,62h0c-1.57,0-3.025-0.824-3.833-2.17L36,57h-8l-1.698,2.83   C25.494,61.176,24.039,62,22.469,62h0C20.001,62,18,59.999,18,57.531v-0.012c0-0.345,0.04-0.688,0.119-1.024L22,40l-10,2   c0,2.761-2.238,5-5,5C4.297,47,2,44.703,2,42c0-2.761,2.239-5,5-5l15-9"/>
	<path style="fill:#75614F;" d="M42.963,44.093L41,49l-4,2l-1,6l0,0l1.698,2.83c0.808,1.346,2.263,2.17,3.832,2.17h0   C43.999,62,46,59.999,46,57.531v-0.012c0-0.345-0.04-0.688-0.119-1.024L42.963,44.093z"/>
	<path style="fill:#75614F;" d="M27,51l-4-2l-1.963-4.907l-2.918,12.402C18.04,56.831,18,57.174,18,57.519v0.012   C18,59.999,20.001,62,22.469,62c1.57,0,3.025-0.824,3.833-2.17L28,57L27,51z"/>
	<path style="fill:#75614F;" d="M57,37l-12.083-7.25L47,36l8,4l4.97,5.964C61.186,45.041,62,43.598,62,42C62,39.238,59.761,37,57,37   z"/>
	<path style="fill:#75614F;" d="M17,36l2.083-6.25L7,37c-2.761,0-5,2.238-5,5c0,1.598,0.814,3.041,2.03,3.965L9,40L17,36z"/>
	<path style="fill:#8E7761;" d="M27,51l-0.897-0.449l-2.484,4.14l-1.172-0.586c-0.259-0.131-0.562-0.14-0.83-0.029   c-0.268,0.111-0.475,0.333-0.565,0.607l-1.928,5.783c0.464,0.528,1.039,0.949,1.703,1.212l1.757-5.269l0.969,0.484   c0.47,0.234,1.036,0.068,1.305-0.38l2.396-3.994L27,51z"/>
	<path style="fill:#8E7761;" d="M44.876,60.467l-1.928-5.783c-0.091-0.274-0.298-0.496-0.565-0.607   c-0.269-0.111-0.571-0.102-0.83,0.029l-1.172,0.586l-2.484-4.14L37,51l-0.254,1.521l2.396,3.993   c0.269,0.447,0.835,0.613,1.305,0.38l0.969-0.484l1.757,5.269C43.837,61.416,44.412,60.994,44.876,60.467z"/>
	<path style="fill:#75614F;" d="M38.661,30.025l-1.828,0.812l3.975,8.94l-2.099,2.099L33,40.245v-1.71l2.555-1.703l-1.109-1.664   l-1.911,1.274l-0.431-1.294l2.708-4.061l-2.643,0.359l-1.853,2.779l-3.763,1.881l0.895,1.789l2.969-1.484L31,38.161v2.084   l-5.709,1.632l-2.099-2.099l3.975-8.94l-1.828-0.812l-4.253,9.568c-0.086,0.194-0.104,0.403-0.065,0.602L22,40l-0.269,1.145   l2.562,2.562c0.258,0.258,0.637,0.354,0.981,0.255L27,43.469V45c0,0.379,0.214,0.725,0.553,0.895l1.63,0.814l0.869,2.607   l1.896-0.633l-1-3c-0.083-0.251-0.264-0.459-0.501-0.578L29,44.382v-1.485l3-0.857l5.408,1.545l-1.24,1.86l1.664,1.109l1.945-2.918   l2.492-2.492L42,40l0.979,0.196c0.04-0.199,0.021-0.408-0.065-0.602L38.661,30.025z"/>
	<path style="fill:#75614F;" d="M17,17c0,8.284,6.716,15,15,15s15-6.716,15-15l0-3l-3,1l2-5l-4-3l-3,4V6l-7-4l-5,2v7l-5-4l-5,3   L17,17z"/>
	<path style="fill:#8E7761;" d="M44.462,13.846L44,14l1.692-4.231L42,7l-3,4v-1V6l-7-4l-5,2v6v1l-5-4l-5,3v6c0,8.284,6.716,15,15,15   c8.284,0,15-6.716,15-15v-2l-3,1L44.462,13.846z"/>
	<path style="fill:#75614F;" d="M22.447,14.105l-1.66-0.83l-1.789-4.474L17.26,9.844l1.811,4.528   c0.091,0.227,0.263,0.413,0.481,0.523l2,1L22.447,14.105z"/>
	<path style="fill:#75614F;" d="M33.707,11.293l-1.765-1.764l-1.013-7.1l-1.912,0.765l0.992,6.949   c0.031,0.214,0.13,0.413,0.283,0.565l2,2L33.707,11.293z"/>
	<polygon style="fill:#75614F;" points="37.925,5.386 36.186,4.392 34.105,8.553 35.895,9.447  "/>
	<path style="fill:#75614F;" d="M36,14.618l3.447-1.724C39.786,12.725,40,12.379,40,12V9.667L39,11V6l-1-0.571v5.953l-3.447,1.724   C34.214,13.275,34,13.621,34,14v3h2V14.618z"/>
	<g>
		<path style="fill:#75614F;" d="M27,24c-1.654,0-3-1.346-3-3s1.346-3,3-3s3,1.346,3,3S28.654,24,27,24z M27,20    c-0.552,0-1,0.449-1,1s0.448,1,1,1s1-0.449,1-1S27.552,20,27,20z"/>
	</g>
	<g>
		<path style="fill:#75614F;" d="M37,24c-1.654,0-3-1.346-3-3s1.346-3,3-3s3,1.346,3,3S38.654,24,37,24z M37,20    c-0.552,0-1,0.449-1,1s0.448,1,1,1s1-0.449,1-1S37.552,20,37,20z"/>
	</g>
	<polygon style="fill:#75614F;" points="37,27 36,27 36,26 34,26 34,27 27,27 27,29 28,29 28,30 30,30 30,29 37,29  "/>
</g>
</svg>
