<?xml version="1.0" encoding="iso-8859-1"?>
<!-- Generator: Adobe Illustrator 22.1.0, SVG Export Plug-In . SVG Version: 6.00 Build 0)  -->
<svg xmlns="http://www.w3.org/2000/svg" xmlns:xlink="http://www.w3.org/1999/xlink" version="1.1" id="Layer_3" x="0px" y="0px" viewBox="0 0 64 64" style="enable-background:new 0 0 64 64;" xml:space="preserve" width="512" height="512">
<g>
	<path style="fill:#566164;" d="M62.956,32.706l-4-13c-0.111-0.36-0.414-0.626-0.784-0.691c-0.373-0.063-0.747,0.084-0.972,0.385   c-2.055,2.739-3.474,5.965-4.104,9.331l-0.999,5.328l1.828,1.097l1.135-6.056c0.332-1.767,0.906-3.491,1.688-5.113l-0.729,8.739   l-1.418,2.836l1.72,1.032l1.573-3.146c0.028-0.056,0.033-0.12,0.05-0.18l2.293,0.573l-2.183,3.276   c0.681,0.146,1.304,0.436,1.851,0.829l2.926-4.39C62.999,33.305,63.044,32.993,62.956,32.706z M58.148,31.256l0.484-5.802   l1.974,6.416L58.148,31.256z"/>
	<polygon style="fill:#B9B9B9;" points="8,30 5,26 5,23 9,22 13,23 12,27  "/>
	<g>
		
			<rect x="0.996" y="49.418" transform="matrix(0.1338 -0.991 0.991 0.1338 -45.0976 49.2428)" style="fill:#919191;" width="9.247" height="2"/>
	</g>
	<g>
		
			<rect x="-2.014" y="27.5" transform="matrix(0.1338 -0.991 0.991 0.1338 -20.8106 33.1917)" style="fill:#919191;" width="21.191" height="2"/>
	</g>
	<path style="fill:#D8C4A9;" d="M42,28l15,9c2.761,0,5,2.238,5,5c0,2.703-2.297,5.001-5,5c-2.761,0-5-2.239-5-5l-10-2l3.881,16.495   C45.96,56.831,46,57.174,46,57.519v0.012C46,59.999,43.999,62,41.531,62h0c-1.57,0-3.025-0.824-3.833-2.17L36,57h-8l-1.698,2.83   C25.494,61.176,24.039,62,22.469,62h0C20.001,62,18,59.999,18,57.531v-0.012c0-0.345,0.04-0.688,0.119-1.024L22,40l-10,2   c0,2.761-2.238,5-5,5C4.297,47,2,44.703,2,42c0-2.761,2.239-5,5-5l15-9"/>
	<polyline style="fill:#666666;" points="40,29 42,40 44.118,49 19.882,49 22,40 24,29  "/>
	<polygon style="fill:#566164;" points="20.823,45 19.882,49 44.118,49 43.177,45  "/>
	<path style="fill:#3B4546;" d="M22.469,62c1.57,0,3.025-0.824,3.832-2.17L28,57h8l1.698,2.83c0.808,1.346,2.263,2.17,3.833,2.17   C43.999,62,46,59.999,46,57.531v-0.012c0-0.345-0.04-0.688-0.119-1.024L44.118,49H19.882l-1.764,7.495   C18.04,56.831,18,57.174,18,57.519v0.012C18,59.999,20.001,62,22.469,62L22.469,62z"/>
	<polyline style="fill:#878787;" points="29,39 28,45 28,49 36,49 36,45 35,39  "/>
	<polygon style="fill:#666666;" points="47,41 50.158,41.632 53.136,34.682 48.961,32.176  "/>
	<polygon style="fill:#666666;" points="13.842,41.632 17,41 15.039,32.176 10.864,34.682  "/>
	<polyline style="fill:#8367B9;" points="34,31 34,36 38,35 38,38 32,41 26,38 26,35 30,36 30,31  "/>
	<circle style="fill:#878787;" cx="41" cy="56" r="2"/>
	<circle style="fill:#878787;" cx="23" cy="56" r="2"/>
	<circle style="fill:#D8C4A9;" cx="32" cy="17" r="15"/>
	<ellipse style="fill:#E4CFB6;" cx="31" cy="17" rx="14" ry="14.95"/>
	<path style="fill:#566164;" d="M32,2c-4.371,0-8.292,1.881-11.034,4.864L22,11l6-5v4l7-4v5l5-3l5.324,2.13   C42.831,5.304,37.806,2,32,2z"/>
	<path style="fill:#666666;" d="M17.141,15.048l5.389,1.078l0.393-1.961l-5.389-1.078C17.361,13.725,17.228,14.379,17.141,15.048z"/>
	<path style="fill:#666666;" d="M46.466,13.087l-5.389,1.078l0.393,1.961l5.389-1.078C46.772,14.379,46.639,13.725,46.466,13.087z"/>
	<g>
		<rect x="28" y="25" style="fill:#B8A490;" width="8" height="2"/>
	</g>
	<path style="fill:#666666;" d="M17,17c0,0.677,0.06,1.339,0.147,1.992l4.645,0.986l0.416-1.956l-5.204-1.105   C17.004,16.945,17,16.972,17,17z"/>
	<path style="fill:#666666;" d="M47,17c0-0.046-0.006-0.091-0.007-0.137l-5.211,1.161l0.436,1.952l4.642-1.034   C46.943,18.305,47,17.66,47,17z"/>
	<path style="fill:#566164;" d="M54.119,50.255l-1.979-3.298l0.942-1.884c-0.543-0.691-0.901-1.522-1.018-2.437l-1.899,3.799   l-5.331,5.997c0.695-2.157,1.742-4.2,3.104-6.015l3.411-4.547l-2.174-0.435l-2.837,3.782c-2.148,2.865-3.596,6.246-4.184,9.776   l-0.141,0.842c-0.06,0.359,0.08,0.722,0.365,0.948C42.559,56.926,42.778,57,43,57c0.13,0,0.261-0.025,0.385-0.077l12-5   c0.312-0.13,0.538-0.41,0.599-0.744l0.765-4.204c-0.695-0.035-1.349-0.21-1.941-0.501L54.119,50.255z M46.654,53.394l4.188-4.712   l1.424,2.374L46.654,53.394z"/>
	<rect x="28" y="45" style="fill:#ABABAB;" width="8" height="4"/>
	<polygon style="fill:#878787;" points="34,18 35,22 43,20 42,14 22,14 21,20 29,22 30,18  "/>
</g>
</svg>
