<?xml version="1.0" encoding="iso-8859-1"?>
<!-- Generator: Adobe Illustrator 22.1.0, SVG Export Plug-In . SVG Version: 6.00 Build 0)  -->
<svg xmlns="http://www.w3.org/2000/svg" xmlns:xlink="http://www.w3.org/1999/xlink" version="1.1" id="Layer_3" x="0px" y="0px" viewBox="0 0 64 64" style="enable-background:new 0 0 64 64;" xml:space="preserve" width="512" height="512">
<g>
	<path style="fill:#DC6068;" d="M42,28l9,3l-1.149,1.915L57,37c2.761,0,5,2.238,5,5c0,2.703-2.297,5.001-5,5c-2.761,0-5-2.239-5-5   l-10-2l3.881,16.495C45.96,56.831,46,57.174,46,57.519v0.012C46,59.999,43.999,62,41.531,62h0c-1.57,0-3.025-0.824-3.833-2.17   L36,57h-8l-1.698,2.83C25.494,61.176,24.039,62,22.469,62h0C20.001,62,18,59.999,18,57.531v-0.012c0-0.345,0.04-0.688,0.119-1.024   L22,40l-10,2c0,2.761-2.238,5-5,5C4.297,47,2,44.703,2,42c0-2.761,2.239-5,5-5l7.149-4.085L13,31l9-3"/>
	<polygon style="fill:#D2A95C;" points="45.214,40.643 50.158,41.632 53.098,34.771 49.851,32.915  "/>
	<polygon style="fill:#D2A95C;" points="10.902,34.771 13.842,41.632 18.786,40.643 14.149,32.915  "/>
	<polygon style="fill:#D2A95C;" points="43.885,48.01 42.942,44.005 32,45 21.058,44.005 20.115,48.01 32,49  "/>
	<polygon style="fill:#D2A95C;" points="37.154,58.923 45.474,54.763 44.828,52.017 35,53 34,57 36,57  "/>
	<polygon style="fill:#D2A95C;" points="19.172,52.017 18.526,54.763 26.846,58.923 28,57 30,57 29,53  "/>
	<path style="fill:#CA5057;" d="M42.134,28.045L51,31l-3,5l-8-1v-5.317C40.761,29.201,41.475,28.652,42.134,28.045z"/>
	<path style="fill:#CA5057;" d="M21.866,28.045L13,31l3,5l8-1v-5.317C23.239,29.201,22.525,28.652,21.866,28.045z"/>
	<circle style="fill:#D8D2D8;" cx="32" cy="38" r="3"/>
	<path style="fill:#CA5057;" d="M49,13l-2.704-0.541C44.372,6.395,38.701,2,32,2c-6.701,0-12.372,4.395-14.296,10.459L15,13l1,9   h1.872c2.061,5.822,7.6,10,14.128,10c6.528,0,12.067-4.178,14.128-10H48L49,13z"/>
	<path style="fill:#D2A95C;" d="M40,9l-4-2l-2,4h-4l-2-4l-4,2l-4,6l2,6v7.153C24.651,30.539,28.15,32,32,32s7.349-1.461,10-3.847V21   l2-6L40,9z"/>
	<path style="fill:#CA5057;" d="M27.804,31.392C29.136,31.781,30.541,32,32,32s2.864-0.219,4.196-0.608L34,27h-4L27.804,31.392z"/>
	<polygon style="fill:#D8D2D8;" points="30,17 20.308,15.923 21.652,19.956 30,21  "/>
	<polygon style="fill:#C4C4C4;" points="43.692,15.923 34,17 34,21 42.348,19.957  "/>
	<polygon style="fill:#D8D2D8;" points="43.692,15.923 34,17 34,21 42.348,19.957  "/>
	<g>
		<rect x="4" y="49" style="fill:#919191;" width="2" height="6"/>
	</g>
	<g>
		<rect x="8" y="51" style="fill:#919191;" width="2" height="8"/>
	</g>
	<g>
		<rect x="58" y="49" style="fill:#919191;" width="2" height="6"/>
	</g>
	<g>
		<rect x="54" y="51" style="fill:#919191;" width="2" height="8"/>
	</g>
</g>
</svg>
