<?xml version="1.0" encoding="iso-8859-1"?>
<!-- Generator: Adobe Illustrator 22.1.0, SVG Export Plug-In . SVG Version: 6.00 Build 0)  -->
<svg xmlns="http://www.w3.org/2000/svg" xmlns:xlink="http://www.w3.org/1999/xlink" version="1.1" id="Layer_3" x="0px" y="0px" viewBox="0 0 64 64" style="enable-background:new 0 0 64 64;" xml:space="preserve" width="512" height="512">
<g>
	<polyline style="fill:#566164;" points="43,47 47,47 48,53 44,53  "/>
	<polyline style="fill:#566164;" points="20,51 16,51 15,57 19,57  "/>
	<path style="fill:#404B5D;" d="M42,28l15,9c2.761,0,5,2.238,5,5c0,2.703-2.297,5.001-5,5c-2.761,0-5-2.239-5-5l-10-2l3.881,16.495   C45.96,56.831,46,57.174,46,57.519v0.012C46,59.999,43.999,62,41.531,62h0c-1.57,0-3.025-0.824-3.833-2.17L36,57h-8l-1.698,2.83   C25.494,61.176,24.039,62,22.469,62h0C20.001,62,18,59.999,18,57.531v-0.012c0-0.345,0.04-0.688,0.119-1.024L22,40l-10,2   c0,2.761-2.238,5-5,5C4.297,47,2,44.703,2,42c0-2.761,2.239-5,5-5l15-9"/>
	<polygon style="fill:#566164;" points="44.064,48.771 34.463,57 36,57 36.522,57.869 44.58,50.963  "/>
	<path style="fill:#566164;" d="M18.218,56.073l-0.099,0.422C18.04,56.831,18,57.174,18,57.519v0.012C18,59.999,20.001,62,22.469,62   c1.57,0,3.025-0.824,3.833-2.17l0.531-0.886L18.218,56.073z"/>
	<path style="fill:#566164;" d="M37.698,59.83c0.808,1.346,2.263,2.17,3.832,2.17h0C43.999,62,46,59.999,46,57.531v-0.012   c0-0.345-0.04-0.688-0.119-1.024l-0.099-0.422l-8.615,2.872L37.698,59.83z"/>
	<polygon style="fill:#B9B9B9;" points="42.706,43 36,43 36.25,45 27.75,45 28,43 21.294,43 19.412,51 27,51 27.25,49 36.75,49    37,51 44.588,51  "/>
	<rect x="25" y="35" style="fill:#939FA5;" width="6" height="4"/>
	<path style="fill:#939FA5;" d="M62,42c0-2.761-2.239-5-5-5l-5-3l-2.791,7.442L52,42c0,2.761,2.238,5,5,5C59.703,47,62,44.703,62,42   z"/>
	<path style="fill:#939FA5;" d="M12,34l-5,3c-2.761,0-5,2.238-5,5C2,44.703,4.297,47,7,47c2.761,0,5-2.239,5-5l2.791-0.558L12,34z"/>
	<circle style="fill:#664C37;" cx="32" cy="17" r="15"/>
	<ellipse style="fill:#876440;" cx="30.5" cy="17" rx="13.5" ry="14.924"/>
	<circle style="fill:#566164;" cx="37" cy="17" r="3"/>
	<polygon style="fill:#404B5D;" points="43.412,46 20.588,46 20.118,48 43.882,48  "/>
	<g>
		<path style="fill:#664C37;" d="M30,18h-2c0-0.551-0.448-1-1-1s-1,0.449-1,1h-2c0-1.654,1.346-3,3-3S30,16.346,30,18z"/>
	</g>
	<path style="fill:#3B4546;" d="M36.832,22.445C36.646,22.167,36.334,22,36,22h-8c-0.334,0-0.646,0.167-0.832,0.445l-2,3   c-0.147,0.221-0.2,0.491-0.148,0.751l0.902,4.509c0.704,0.313,1.437,0.565,2.193,0.768l-1.053-5.264L28.535,24h6.93l1.474,2.21   l-1.052,5.263c0.756-0.202,1.489-0.455,2.193-0.768l0.902-4.509c0.052-0.26-0.001-0.53-0.148-0.751L36.832,22.445z"/>
	<g>
		<rect x="29" y="26" style="fill:#664C37;" width="6" height="2"/>
	</g>
	<path style="fill:#3B4546;" d="M45.634,23.227l-5.096-4.401C40.823,18.276,41,17.661,41,17c0-2.206-1.794-4-4-4   c-0.87,0-1.67,0.287-2.327,0.76l-10.82-9.344c-0.574,0.373-1.12,0.783-1.636,1.229l11.177,9.653C33.148,15.816,33,16.389,33,17   c0,2.206,1.794,4,4,4c0.82,0,1.581-0.249,2.216-0.674l5.441,4.7C45.023,24.451,45.349,23.851,45.634,23.227z M37,19   c-1.103,0-2-0.897-2-2s0.897-2,2-2s2,0.897,2,2S38.103,19,37,19z"/>
	<polygon style="fill:#566164;" points="45.289,29.973 43.312,36 32,36 32,35 30,35 30,42 32,42 32,38 42.656,38 42,40    43.926,40.385 47.045,31.027  "/>
	<g>
		<polygon style="fill:#566164;" points="22,40 20,40.4 20,36 25,36 25,38 22,38   "/>
	</g>
</g>
</svg>
