<?xml version="1.0" encoding="iso-8859-1"?>
<!-- Generator: Adobe Illustrator 22.1.0, SVG Export Plug-In . SVG Version: 6.00 Build 0)  -->
<svg xmlns="http://www.w3.org/2000/svg" xmlns:xlink="http://www.w3.org/1999/xlink" version="1.1" id="Layer_3" x="0px" y="0px" viewBox="0 0 64 64" style="enable-background:new 0 0 64 64;" xml:space="preserve" width="512" height="512">
<g>
	<path style="fill:#534538;" d="M44,60h6.5c1.601,0,3.136-0.636,4.268-1.768l0.464-0.464C56.364,56.636,57,55.101,57,53.5v0   c0-1.601,0.636-3.136,1.768-4.268L61,47h-6.198c-1.154,0-2.26,0.458-3.076,1.274l0,0c-0.477,0.477-0.837,1.06-1.051,1.7   l-0.371,1.114C49.492,53.525,47.491,55.377,45,56h0"/>
	<path style="fill:#876440;" d="M52.921,47.446c-0.436,0.21-0.846,0.479-1.195,0.827c-0.148,0.148-0.262,0.322-0.386,0.488   l0.127,0.085c1.804,1.202,3.27,2.862,4.239,4.803l0.937,1.874C56.873,54.879,57,54.197,57,53.5c0-0.451,0.056-0.896,0.154-1.329   C56.108,50.303,54.666,48.687,52.921,47.446z"/>
	<path style="fill:#876440;" d="M54.85,58.15l-0.162-0.813c-0.509-2.541-1.976-4.731-4.131-6.168l-0.229-0.153l-0.024,0.072   c-0.209,0.626-0.498,1.211-0.851,1.749c1.708,1.141,2.87,2.878,3.274,4.893l0.338,1.691c0.626-0.294,1.205-0.69,1.703-1.188   L54.85,58.15z"/>
	<path style="fill:#876440;" d="M50,60v-0.171c0-1.987-0.743-3.856-2.084-5.306c-0.527,0.43-1.111,0.789-1.742,1.064l0.12,0.12   C47.394,56.808,48,58.271,48,59.829V60H50z"/>
	<path style="fill:#D2C3AF;" d="M46.911,15.356l1.355-3.666C49.413,8.588,50,5.307,50,2v0L39.618,4.076"/>
	<path style="fill:#534538;" d="M44,8c0,0,6-6,6-6c0,3.307-0.587,6.588-1.734,9.69l-1.355,3.666"/>
	<path style="fill:#D2C3AF;" d="M17.089,15.356l-1.355-3.666C14.587,8.588,14,5.307,14,2v0l10.382,2.076"/>
	<path style="fill:#534538;" d="M20,8c0,0-6-6-6-6c0,3.307,0.587,6.588,1.734,9.69l1.355,3.666"/>
	<circle style="fill:#A19080;" cx="32" cy="17" r="15"/>
	<g>
		<rect x="29" y="11" style="fill:#D2C3AF;" width="2" height="7.417"/>
	</g>
	<g>
		<rect x="33" y="11" style="fill:#D2C3AF;" width="2" height="7.417"/>
	</g>
	<path style="fill:#664C37;" d="M6,42v5h4V2H7v1c0,1.657-1.343,3-3,3h0v8h2"/>
	<path style="fill:#A19080;" d="M42,28l15,9c2.761,0,5,2.238,5,5c0,2.703-2.297,5.001-5,5c-2.761,0-5-2.239-5-5l-10-2l3.881,16.495   C45.96,56.831,46,57.174,46,57.519v0.012C46,59.999,43.999,62,41.531,62h0c-1.57,0-3.025-0.824-3.833-2.17L36,57h-8l-1.698,2.83   C25.494,61.176,24.039,62,22.469,62h0C20.001,62,18,59.999,18,57.531v-0.012c0-0.345,0.04-0.688,0.119-1.024L22,40l-10,2   c0,2.761-2.238,5-5,5C4.297,47,2,44.703,2,42c0-2.761,2.239-5,5-5l15-9"/>
	<polygon style="fill:#534538;" points="10,15 6,19 6,47 10,47  "/>
	<polyline style="fill:#828282;" points="10,10 6,14 2,14 2,29 6,29 6,19 10,15  "/>
	<polyline style="fill:#664C37;" points="10,37 2,39 2,43 10,41  "/>
	<path style="fill:#828282;" d="M10,27v20H8v3c1.105,0,2,0.895,2,2s-0.895,2-2,2s-2-0.895-2-2l-4-4v7l3,3h6l3-3V27H10z"/>
	<path style="fill:#CE7E3C;" d="M21.88,28.072L17,31c0,0,5,9,5,9l-3.881,16.495C18.04,56.831,18,57.174,18,57.519v0.012   C18,59.999,20.001,62,22.469,62h0c1.57,0,3.025-0.824,3.833-2.17L28,57h8l1.698,2.83c0.808,1.346,2.263,2.17,3.833,2.17h0   C43.999,62,46,59.999,46,57.531v-0.012c0-0.345-0.04-0.688-0.119-1.024C45.881,56.495,42,40,42,40c0,0,5-9,5-9   c0,0-4.88-2.928-4.88-2.928"/>
	<path style="fill:#534538;" d="M42.12,28.072c-1.451,1.327-3.164,2.373-5.052,3.05C37.068,31.122,42,40,42,40c0,0,5-9,5-9   C47,31,42.12,28.072,42.12,28.072z"/>
	<path style="fill:#534538;" d="M21.88,28.072L17,31c0,0,5,9,5,9l4.932-8.878C25.044,30.445,23.331,29.399,21.88,28.072z"/>
	<polyline style="fill:#B8A490;" points="27,31 22.556,39 41.444,39 37,31  "/>
	<path style="fill:#B89148;" d="M32,41l4-4l-2.168-1.445C33.29,35.193,32.652,35,32,35h0c-0.652,0-1.29,0.193-1.832,0.555L28,37   L32,41z"/>
	<path style="fill:#A19080;" d="M37.698,59.83c0.808,1.346,2.263,2.17,3.832,2.17h0C43.999,62,46,59.999,46,57.531v-0.012   c0-0.174-0.01-0.347-0.03-0.519H36L37.698,59.83z"/>
	<path style="fill:#A19080;" d="M22.469,62c1.57,0,3.025-0.824,3.833-2.17L28,57h-9.97C18.01,57.172,18,57.345,18,57.519v0.012   C18,59.999,20.001,62,22.469,62z"/>
	<path style="fill:#D8C4A9;" d="M47,17c0-2.119-0.445-4.133-1.237-5.96l-2.932,0.489c-1.871,0.312-3.666,0.973-5.292,1.948   c-1.677,1.006-3.142,2.328-4.316,3.892L32,19l-1.223-1.631c-1.173-1.564-2.639-2.886-4.316-3.892   c-1.626-0.976-3.421-1.637-5.292-1.948l-2.932-0.489C17.445,12.867,17,14.881,17,17c0,5.462,2.929,10.228,7.293,12.851   C25.232,26.477,28.326,24,32,24s6.768,2.477,7.707,5.851C44.071,27.228,47,22.462,47,17z"/>
	<path style="fill:#3B4546;" d="M42.831,15.528c-1.871,0.312-3.666,0.973-5.292,1.948c-1.677,1.006-3.142,2.328-4.316,3.892L32,23   l-1.223-1.631c-1.173-1.564-2.639-2.886-4.316-3.892c-1.626-0.976-3.421-1.637-5.292-1.948l-2.932-0.489   c-0.545,1.257-0.912,2.607-1.096,4.014c0.631,4.589,3.345,8.509,7.151,10.797C25.232,26.477,28.326,24,32,24   s6.768,2.477,7.707,5.851c3.807-2.288,6.52-6.208,7.151-10.797c-0.184-1.407-0.551-2.757-1.096-4.014L42.831,15.528z"/>
	<path style="fill:#D8C4A9;" d="M32,24c-3.674,0-6.768,2.477-7.707,5.851C26.547,31.206,29.178,32,32,32s5.453-0.794,7.707-2.149   C38.768,26.477,35.674,24,32,24z"/>
	<path style="fill:#B9B9B9;" d="M27,17l-5.262-2.627C21.278,15.076,21,15.994,21,17c0,2.209,1.343,4,3,4S27,19.209,27,17z"/>
	<path style="fill:#B9B9B9;" d="M37,17l5.262-2.627C42.722,15.076,43,15.994,43,17c0,2.209-1.343,4-3,4S37,19.209,37,17z"/>
	<polyline style="fill:#534538;" points="36,57 34,53 30,53 28,57  "/>
	<path style="fill:#B8A490;" d="M23,59h-2v2.733C21.462,61.895,21.952,62,22.469,62c0.179,0,0.356-0.014,0.531-0.035V59z"/>
	<path style="fill:#B8A490;" d="M43,59h-2v2.965C41.175,61.986,41.352,62,41.531,62h0c0.518,0,1.007-0.105,1.469-0.267V59z"/>
	<path style="fill:#3B4546;" d="M41,48v-2h-5v-1c0-0.553-0.447-1-1-1h-6c-0.553,0-1,0.447-1,1v1h-5v2h5v1c0,0.553,0.447,1,1,1h6   c0.553,0,1-0.447,1-1v-1H41z M34,48h-4v-2h4V48z"/>
	<g>
		<rect x="29" y="27" style="fill:#A19080;" width="6" height="2"/>
	</g>
	<polygon style="fill:#534538;" points="18.923,53.077 25,47 22,40  "/>
	<polygon style="fill:#534538;" points="45.077,53.077 39,47 42,40  "/>
</g>
</svg>
