<?xml version="1.0" encoding="iso-8859-1"?>
<!-- Generator: Adobe Illustrator 22.1.0, SVG Export Plug-In . SVG Version: 6.00 Build 0)  -->
<svg xmlns="http://www.w3.org/2000/svg" xmlns:xlink="http://www.w3.org/1999/xlink" version="1.1" id="Layer_3" x="0px" y="0px" viewBox="0 0 64 64" style="enable-background:new 0 0 64 64;" xml:space="preserve" width="512" height="512">
<g>
	<path style="fill:#CA5057;" d="M42,28l15,9c2.761,0,5,2.238,5,5c0,2.703-2.297,5.001-5,5c-2.761,0-5-2.239-5-5l-10-2l3.881,16.495   C45.96,56.831,46,57.174,46,57.519v0.012C46,59.999,43.999,62,41.531,62h0c-1.57,0-3.025-0.824-3.833-2.17L36,57h-8l-1.698,2.83   C25.494,61.176,24.039,62,22.469,62h0C20.001,62,18,59.999,18,57.531v-0.012c0-0.345,0.04-0.688,0.119-1.024L22,40l-10,2   c0,2.761-2.238,5-5,5C4.297,47,2,44.703,2,42c0-2.761,2.239-5,5-5l15-9"/>
	<polygon style="fill:#3B4546;" points="46.963,30.978 44.128,40.426 46.098,40.82 48.732,32.039  "/>
	<circle style="fill:#CA5057;" cx="32" cy="17" r="15"/>
	<ellipse style="fill:#DC6068;" cx="31" cy="17" rx="14" ry="14.95"/>
	<path style="fill:#EFEFEF;" d="M30,17l-6.617-3.781C22.536,14.135,22,15.49,22,17c0,2.761,1.791,5,4,5S30,19.761,30,17z"/>
	<path style="fill:#EFEFEF;" d="M34,17l6.617-3.781C41.464,14.135,42,15.49,42,17c0,2.761-1.791,5-4,5S34,19.761,34,17z"/>
	<path style="fill:#2B62A1;" d="M25,46l-2-11l-13,5l1.747,3.495C11.897,43.02,12,42.524,12,42l10-2l-1.134,4.819L25,46z"/>
	<ellipse style="fill:#566164;" cx="32" cy="40" rx="3" ry="4"/>
	<path style="fill:#3B4546;" d="M22,18v-2h-4.95C17.029,16.332,17,16.662,17,17s0.029,0.668,0.05,1H22z"/>
	<path style="fill:#3B4546;" d="M42,16v2h4.95c0.022-0.332,0.05-0.662,0.05-1s-0.029-0.668-0.05-1H42z"/>
	<path style="fill:#3B4546;" d="M33,28.414L35.414,26h4.172l2.28,2.28c0.502-0.44,0.974-0.912,1.414-1.414l-5.822-5.821   l-1.414,1.414L37.586,24H35c-0.266,0-0.52,0.105-0.707,0.293L33,25.586V22h-2v3.586l-1.293-1.293C29.52,24.105,29.266,24,29,24   h-2.586l1.545-1.545l-1.414-1.414l-5.825,5.825c0.44,0.502,0.912,0.974,1.414,1.414l2.28-2.28h4.172L31,28.414v3.535   c0.332,0.022,0.662,0.05,1,0.05s0.668-0.029,1-0.05V28.414z"/>
	<path style="fill:#3B4546;" d="M31,5.586L28.586,8h-4.172l-2.28-2.28c-0.502,0.44-0.974,0.912-1.414,1.414l10.573,10.573   C31.488,17.902,31.744,18,32,18s0.512-0.098,0.707-0.293L43.28,7.134c-0.44-0.502-0.912-0.974-1.414-1.414L39.586,8h-4.172   L33,5.586V2.05C32.668,2.029,32.338,2,32,2s-0.668,0.029-1,0.05V5.586z M31,14.586L26.414,10H29c0.266,0,0.52-0.105,0.707-0.293   L31,8.414V14.586z M33,8.414l1.293,1.293C34.48,9.895,34.734,10,35,10h2.586L33,14.586V8.414z"/>
	<path style="fill:#3B4546;" d="M38.242,37.97C38.687,37.859,39,37.459,39,37v-2h-2v1.219l-2.005,0.501   C34.261,35.675,33.198,35,32,35s-2.261,0.675-2.995,1.72L27,36.219V35h-2v2c0,0.459,0.312,0.859,0.758,0.97l2.427,0.607   c-0.034,0.142-0.08,0.276-0.104,0.423H25v2h3.081c0.024,0.147,0.07,0.281,0.104,0.423l-2.427,0.607C25.312,42.141,25,42.541,25,43   v2h2v-1.219l2.005-0.501C29.739,44.325,30.802,45,32,45s2.261-0.675,2.995-1.72L37,43.781V45h2v-2c0-0.459-0.313-0.859-0.758-0.97   l-2.427-0.607c0.034-0.142,0.08-0.276,0.104-0.423H39v-2h-3.081c-0.024-0.147-0.07-0.281-0.104-0.423L38.242,37.97z M32,43   c-1.084,0-2-1.374-2-3s0.916-3,2-3s2,1.374,2,3S33.084,43,32,43z"/>
	<path style="fill:#3B4546;" d="M59.115,42.393l0.747-4.484c-0.559-0.392-1.198-0.674-1.892-0.811l-0.663,3.98l-5.529-4.021   l1.087-2.538l-1.731-1.038l-3.294,7.687l2.004,0.401l1.126-2.627l4.793,3.486l-3.617,0.724c0.163,0.689,0.472,1.316,0.887,1.862   l4.929-0.986l2.314,1.683c0.503-0.447,0.917-0.983,1.213-1.59L59.115,42.393z"/>
	<path style="fill:#3B4546;" d="M22.168,54.445l-2,3c-0.156,0.234-0.206,0.524-0.138,0.797l0.864,3.457   c0.491,0.186,1.018,0.3,1.575,0.3c0.186,0,0.37-0.013,0.552-0.036l-0.944-3.777l1.755-2.632L22.168,54.445z"/>
	<path style="fill:#3B4546;" d="M41.832,54.445l-1.664,1.109l1.755,2.632l-0.944,3.777C41.16,61.987,41.344,62,41.531,62h0   c0.556,0,1.083-0.114,1.575-0.3l0.864-3.457c0.068-0.273,0.019-0.563-0.138-0.797L41.832,54.445z"/>
	<path style="fill:#2B62A1;" d="M41,35l-2,11l4.134-1.181L42,40l10,2c0,0.524,0.103,1.02,0.253,1.495L54,40L41,35z"/>
	<path style="fill:#3B4546;" d="M12.865,33.481l-1.731,1.038l1.088,2.538l-5.529,4.021l-0.663-3.98   c-0.694,0.137-1.333,0.419-1.892,0.811l0.747,4.484L2.511,44.12c0.296,0.607,0.71,1.144,1.213,1.59l2.314-1.683l4.929,0.986   c0.416-0.546,0.724-1.173,0.887-1.862l-3.617-0.723l4.793-3.486l1.126,2.627l2.004-0.401L12.865,33.481z"/>
	<polygon style="fill:#3B4546;" points="17.037,30.978 15.268,32.039 17.902,40.82 19.872,40.426  "/>
	<polygon style="fill:#2B62A1;" points="43.882,48 20.118,48 18.949,52.968 27.291,58.182 28,57 36,57 36.709,58.182 45.051,52.968     "/>
	<g>
		<path style="fill:#566164;" d="M26,23c-2.757,0-5-2.691-5-6c0-1.7,0.601-3.326,1.648-4.46c0.316-0.342,0.827-0.421,1.23-0.189    l6.617,3.781C30.808,16.31,31,16.641,31,17C31,20.309,28.757,23,26,23z M23.651,14.524C23.232,15.225,23,16.092,23,17    c0,2.206,1.346,4,3,4c1.511,0,2.765-1.497,2.971-3.437L23.651,14.524z"/>
	</g>
	<g>
		<path style="fill:#566164;" d="M38,23c-2.757,0-5-2.691-5-6c0-0.359,0.192-0.69,0.504-0.868l6.617-3.781    c0.403-0.231,0.915-0.153,1.23,0.189C42.399,13.674,43,15.3,43,17C43,20.309,40.757,23,38,23z M35.029,17.563    C35.235,19.503,36.489,21,38,21c1.654,0,3-1.794,3-4c0-0.908-0.232-1.775-0.651-2.476L35.029,17.563z"/>
	</g>
</g>
</svg>
