<?xml version="1.0" encoding="iso-8859-1"?>
<!-- Generator: Adobe Illustrator 22.1.0, SVG Export Plug-In . SVG Version: 6.00 Build 0)  -->
<svg xmlns="http://www.w3.org/2000/svg" xmlns:xlink="http://www.w3.org/1999/xlink" version="1.1" id="Layer_3" x="0px" y="0px" viewBox="0 0 64 64" style="enable-background:new 0 0 64 64;" xml:space="preserve" width="512" height="512">
<g>
	<path style="fill:#566164;" d="M32.37,48.849c0,0,13.007,5.503,13.007,5.503l0.504,2.143C45.96,56.831,46,57.174,46,57.519v0.012   C46,59.999,43.999,62,41.531,62h0c-1.57,0-3.025-0.824-3.833-2.17L36,56h-8l-1.698,3.83C25.494,61.176,24.039,62,22.469,62h0   C20.001,62,18,59.999,18,57.531v-0.012c0-0.345,0.04-0.688,0.119-1.024l0.473-2.01C18.592,54.485,32.37,48.849,32.37,48.849z"/>
	<path style="fill:#876440;" d="M41.531,62C43.999,62,46,59.999,46,57.531v-0.012c0-0.172-0.01-0.344-0.03-0.515l-9.078,1.009   l0.806,1.818C38.506,61.176,39.961,62,41.531,62L41.531,62z"/>
	<path style="fill:#876440;" d="M26.302,59.83l0.806-1.818l-9.078-1.009C18.01,57.174,18,57.346,18,57.519v0.012   C18,59.999,20.001,62,22.469,62C24.039,62,25.494,61.176,26.302,59.83z"/>
	<polyline style="fill:#664C37;" points="37,51 37,60 33,60 33,49  "/>
	<path style="fill:#D8C4A9;" d="M58.962,28.829l-1.073-4.828c-1.881,0.029-3.678,0.788-5.01,2.12l-0.545,0.545   c0,0,1.747,3.493,1.747,3.493L58.962,28.829z"/>
	<path style="fill:#D8C4A9;" d="M6.111,24.001l-1.073,4.828L9.92,30.16c0,0,1.159-2.318,1.747-3.493l-0.545-0.545   C9.789,24.789,7.992,24.03,6.111,24.001z"/>
	<path style="fill:#926350;" d="M52,34l-1-3l3.08-0.84L52,26l-9.767,1.953c-0.059,0.055-0.111,0.117-0.171,0.171L43,31l-6,3H27l-6-3   l0.938-2.876c-0.06-0.054-0.112-0.116-0.171-0.171L12,26l-2.08,4.16L13,31l-1,3l7,4l-9,20l22.37-9.151C32.37,48.849,54,58,54,58   l-9-20L52,34z"/>
	<polygon style="fill:#664C37;" points="29.406,38.899 17.225,41.944 14.942,47.017 32.224,41.934  "/>
	<polygon style="fill:#664C37;" points="50.459,50.131 46.8,42 38,42 30,34 27,34 23,32 36,46  "/>
	<path style="fill:#566164;" d="M47,17c0-4.448-1.947-8.432-5.022-11.178C41.858,3.697,39.685,2,37,2   c-0.689,0-1.346,0.112-1.943,0.314C34.07,2.109,33.048,2,32,2s-2.07,0.109-3.057,0.314C28.346,2.112,27.689,2,27,2   c-2.685,0-4.858,1.697-4.978,3.822C18.947,8.569,17,12.552,17,17c0,4.412,1.905,8.38,4.938,11.124L21,31l6,3h10l6-3l-0.938-2.875   C45.095,25.38,47,21.412,47,17z"/>
	<path style="fill:#876440;" d="M23.962,13.846c-0.28-1.12-1.994-7.975-1.994-7.975c0.018-0.016,0.036-0.033,0.055-0.049   C22.142,3.697,24.315,2,27,2c0.689,0,1.346,0.112,1.943,0.314C29.93,2.109,30.952,2,32,2s2.07,0.109,3.057,0.314   C35.654,2.112,36.311,2,37,2c2.685,0,4.858,1.697,4.978,3.822c0.018,0.016,0.037,0.033,0.055,0.049c0,0-1.714,6.855-1.994,7.975   l-0.192,0.055C37.294,14.63,34.654,15,32,15h0c-2.654,0-5.294-0.37-7.846-1.099C24.154,13.901,23.962,13.846,23.962,13.846z"/>
	<path style="fill:#D8C4A9;" d="M28.346,24.654c-1.378-0.263-2.727-0.675-4.022-1.23L21,22v-9l3.154,0.901   C26.706,14.63,29.346,15,32,15h0c2.654,0,5.294-0.37,7.846-1.099L43,13v9l-3.323,1.424c-1.296,0.555-2.645,0.967-4.022,1.23"/>
	<circle style="fill:#919191;" cx="27" cy="19" r="2"/>
	<circle style="fill:#919191;" cx="37" cy="19" r="2"/>
	<g>
		<path style="fill:#CA5057;" d="M27,22c-1.654,0-3-1.346-3-3s1.346-3,3-3s3,1.346,3,3S28.654,22,27,22z M27,18    c-0.551,0-1,0.449-1,1s0.449,1,1,1s1-0.449,1-1S27.551,18,27,18z"/>
	</g>
	<g>
		<path style="fill:#CA5057;" d="M37,22c-1.654,0-3-1.346-3-3s1.346-3,3-3s3,1.346,3,3S38.654,22,37,22z M37,18    c-0.551,0-1,0.449-1,1s0.449,1,1,1s1-0.449,1-1S37.551,18,37,18z"/>
	</g>
	
		<rect x="23.043" y="28.833" transform="matrix(0.4472 -0.8944 0.8944 0.4472 -11.9888 40.2682)" style="fill:#ABABAB;" width="7.081" height="2"/>
	
		<rect x="36.417" y="26.293" transform="matrix(0.8944 -0.4472 0.4472 0.8944 -9.3914 19.8818)" style="fill:#ABABAB;" width="2" height="7.081"/>
	<path style="fill:#664C37;" d="M32.027,2.001C32.018,2.001,32.009,2,32,2c-0.678,0-1.34,0.061-1.994,0.149l0.053,0.214   C30.684,4.857,31,7.427,31,10h2C33,7.306,32.67,4.616,32.027,2.001z"/>
	<path style="fill:#664C37;" d="M23.777,2.968l0.104,0.156c1.454,2.18,2.513,4.575,3.149,7.119l1.94-0.485   C28.294,7.05,27.169,4.5,25.639,2.169C24.942,2.329,24.312,2.601,23.777,2.968z"/>
	<path style="fill:#664C37;" d="M36.182,2.066c0.449,2.535,0.075,5.182-1.077,7.487l1.789,0.895   c1.281-2.561,1.734-5.485,1.321-8.313C37.825,2.055,37.422,2,37,2C36.72,2,36.45,2.03,36.182,2.066z"/>
	<polygon style="fill:#876440;" points="40,47.143 42,47.714 42,42 40,42  "/>
	<polygon style="fill:#876440;" points="44,48.286 46,48.857 46,42 44,42  "/>
	<polygon style="fill:#876440;" points="38,42 36,40 36,46 38,46.571  "/>
	<g>
		
			<rect x="0.035" y="23.292" transform="matrix(0.2168 -0.9762 0.9762 0.2168 -18.9782 24.927)" style="fill:#566164;" width="12.024" height="2"/>
	</g>
	<g>
		
			<rect x="57.035" y="18.685" transform="matrix(0.9762 -0.2169 0.2169 0.9762 -3.9665 13.1757)" style="fill:#566164;" width="2" height="11.942"/>
	</g>
	<polyline style="fill:#919191;" points="30,31 28,30 27,26 30,23 34,23 37,26 36,30 34,31  "/>
	<polyline style="fill:#ABABAB;" points="29,34 30,29 34,29 35,34  "/>
	<path style="fill:#919191;" d="M46.879,18.838L50,23l12-5l-1-6l-14.143,3.031C46.942,15.676,47,16.331,47,17   C47,17.623,46.953,18.235,46.879,18.838z"/>
	<polygon style="fill:#B9B9B9;" points="57.915,19.702 62,18 61,12 56.019,13.067  "/>
	<path style="fill:#919191;" d="M17.143,15.031L3,12l-1,6l12,5l3.121-4.162C17.047,18.235,17,17.623,17,17   C17,16.331,17.058,15.676,17.143,15.031z"/>
	<polygon style="fill:#B9B9B9;" points="7.981,13.067 3,12 2,18 6.085,19.702  "/>
	<polygon style="fill:#919191;" points="51,31 53,37 62,33 62,28  "/>
	<polygon style="fill:#B9B9B9;" points="58.143,34.714 62,33 62,28 57.069,29.345  "/>
	<polygon style="fill:#919191;" points="13,31 11,37 2,33 2,28  "/>
	<polygon style="fill:#B9B9B9;" points="6.931,29.345 2,28 2,33 5.857,34.714  "/>
	<path style="fill:#878787;" d="M23.423,11.694C25.936,9.943,28.929,9,32,9h0c3.071,0,6.064,0.943,8.577,2.694   c-0.25,1-0.456,1.823-0.538,2.152l-0.192,0.055C37.294,14.63,34.654,15,32,15h0c-2.654,0-5.294-0.37-7.846-1.099   c0,0-0.192-0.055-0.192-0.055C23.879,13.517,23.673,12.693,23.423,11.694z"/>
	<path style="fill:#ABABAB;" d="M27.921,14.703c0.692,0.1,1.387,0.178,2.085,0.227l-1.119-5.595   c-0.656,0.139-1.299,0.324-1.93,0.549L27.921,14.703z"/>
	<path style="fill:#ABABAB;" d="M33.994,14.93c0.698-0.049,1.393-0.127,2.085-0.227l0.964-4.819c-0.63-0.225-1.274-0.41-1.93-0.549   L33.994,14.93z"/>
</g>
</svg>
