<?xml version="1.0" encoding="iso-8859-1"?>
<!-- Generator: Adobe Illustrator 22.1.0, SVG Export Plug-In . SVG Version: 6.00 Build 0)  -->
<svg xmlns="http://www.w3.org/2000/svg" xmlns:xlink="http://www.w3.org/1999/xlink" version="1.1" id="Layer_3" x="0px" y="0px" viewBox="0 0 64 64" style="enable-background:new 0 0 64 64;" xml:space="preserve" width="512" height="512">
<g>
	<path style="fill:#DC6068;" d="M44,26l6,1l2.857,10l-0.638,2.809L51,52l5,6l-5,2c0,0-5.231-1.046-5.231-1.046   C45.174,60.724,43.501,62,41.531,62h0c-1.57,0-3.025-0.824-3.833-2.17L36,57h-8l-1.698,2.83C25.494,61.176,24.039,62,22.469,62h0   c-1.971,0-3.644-1.276-4.238-3.046L13,60l-5-2l5-6l-1.245-12.448l-0.398-3.3L14,27l6-1"/>
	<path style="fill:#CA5057;" d="M15.143,26.809L14,27l-0.332,1.163l4.564,5.477c0.089,0.106,0.198,0.192,0.321,0.254l5,2.5   l0.895-1.789l-4.812-2.406L15.143,26.809z"/>
	<path style="fill:#CA5057;" d="M50,27l-1.143-0.191l-4.491,5.39l-4.669,2.334l0.895,1.789l4.856-2.428   c0.123-0.062,0.232-0.148,0.321-0.254l4.564-5.477L50,27z"/>
	<rect x="6" y="24" style="fill:#876440;" width="4" height="14"/>
	<rect x="6" y="24" style="fill:#664C37;" width="4" height="4"/>
	<polygon style="fill:#ADADAD;" points="2,23 2,17 3,16 13,16 14,17 14,23 13,24 3,24  "/>
	<polygon style="fill:#C4C4C4;" points="12,17 11,16 3,16 2,17 2,23 3,24 11,24 12,23  "/>
	<path style="fill:#CA5057;" d="M30,52c-9.075,0-16.651-6.366-18.537-14.873l0.293,2.425L13,52l-5,6l5,2l5.231-1.046   C18.826,60.724,20.499,62,22.469,62h0c1.57,0,3.025-0.824,3.832-2.17L28,57h2"/>
	<path style="fill:#CA5057;" d="M34,52c9.075,0,16.651-6.366,18.537-14.873l-0.293,2.425L51,52l5,6l-5,2l-5.231-1.046   C45.174,60.724,43.501,62,41.531,62h0c-1.57,0-3.025-0.824-3.832-2.17L36,57h-2"/>
	<path style="fill:#566164;" d="M42,28l15,9c2.761,0,5,2.238,5,5c0,2.703-2.297,5.001-5,5c-2.761,0-5-2.239-5-5l-10-2l3.881,16.495   C45.96,56.831,46,57.174,46,57.519v0.012C46,59.999,43.999,62,41.531,62h0c-1.57,0-3.025-0.824-3.833-2.17L36,57h-8l-1.698,2.83   C25.494,61.176,24.039,62,22.469,62h0C20.001,62,18,59.999,18,57.531v-0.012c0-0.345,0.04-0.688,0.119-1.024L22,40l-10,2   c0,2.761-2.238,5-5,5C4.297,47,2,44.703,2,42c0-2.761,2.239-5,5-5l15-9"/>
	<path style="fill:#3B4546;" d="M46.778,30.867L45,33l-4.211,2.105l0,0C40.461,34.45,39.783,34,39,34c-1.105,0-2,0.895-2,2   c0,0.311,0.071,0.606,0.198,0.868l0,0L34,39v2l-2,2l-2-2v-2l-3.198-2.132l0,0C26.929,36.606,27,36.311,27,36c0-1.105-0.895-2-2-2   c-0.783,0-1.461,0.45-1.789,1.105l0,0L19,33l-1.778-2.133l4.658-2.795l0,0C24.548,30.512,28.1,32,32,32s7.452-1.488,10.12-3.928   l0,0L46.778,30.867"/>
	<polygon style="fill:#3B4546;" points="43.647,47 20.353,47 19.7,49.775 24,53 24,57.5 26.846,58.923 28,57 36,57 37.154,58.923    40,57.5 40,53 44.3,49.775  "/>
	<polygon style="fill:#919191;" points="44.3,49.775 40,53 40,57.5 45.474,54.763  "/>
	<polygon style="fill:#919191;" points="18.526,54.763 24,57.5 24,53 19.7,49.775  "/>
	<polyline style="fill:#919191;" points="36,47 34,53 30,53 28,47  "/>
	<circle style="fill:#919191;" cx="25.5" cy="42.5" r="2.5"/>
	<circle style="fill:#919191;" cx="38.5" cy="42.5" r="2.5"/>
	<polygon style="fill:#919191;" points="13.642,41.672 17.342,40.932 15.418,31.949 9.901,35.259  "/>
	<polygon style="fill:#919191;" points="46.658,40.932 50.358,41.672 54.099,35.259 48.582,31.949  "/>
	<circle style="fill:#E4CFB6;" cx="32" cy="17" r="15"/>
	<path style="fill:#566164;" d="M32,2c-7.931,0-14.408,6.16-14.947,13.955L24,10h5l1,3l2,2l2-2l1-3h5l6.947,5.955   C46.408,8.16,39.931,2,32,2z"/>
	<path style="fill:#566164;" d="M25,30.262V24l-7.657-3.829C18.287,24.555,21.144,28.222,25,30.262z"/>
	<path style="fill:#566164;" d="M39,30.262c3.856-2.04,6.713-5.707,7.657-10.09L39,24V30.262z"/>
	<path style="fill:#919191;" d="M32,2c-2.084,0-4.067,0.426-5.871,1.194L28,6h4h4l1.871-2.806C36.067,2.426,34.084,2,32,2z"/>
	<path style="fill:#876440;" d="M26.983,31.122C28.554,31.68,30.237,32,32,32s3.446-0.32,5.017-0.878L36,24h-8L26.983,31.122z"/>
	<g>
		<path style="fill:#919191;" d="M32,44c-0.256,0-0.512-0.098-0.707-0.293l-2-2C29.105,41.52,29,41.265,29,41v-1.465l-3.296-2.197    l1.109-1.664l3.741,2.494C30.833,38.354,31,38.666,31,39v1.586l1,1l1-1V39c0-0.334,0.167-0.646,0.445-0.832l4-2.667l1.109,1.664    L35,39.535V41c0,0.265-0.105,0.52-0.293,0.707l-2,2C32.512,43.902,32.256,44,32,44z"/>
	</g>
	<g>
		<path style="fill:#3B4546;" d="M25.5,44c-0.827,0-1.5-0.673-1.5-1.5s0.673-1.5,1.5-1.5s1.5,0.673,1.5,1.5S26.327,44,25.5,44z     M25.5,42c-0.275,0-0.5,0.224-0.5,0.5s0.225,0.5,0.5,0.5s0.5-0.224,0.5-0.5S25.775,42,25.5,42z"/>
	</g>
	<g>
		<path style="fill:#3B4546;" d="M38.5,44c-0.827,0-1.5-0.673-1.5-1.5s0.673-1.5,1.5-1.5s1.5,0.673,1.5,1.5S39.327,44,38.5,44z     M38.5,42c-0.275,0-0.5,0.224-0.5,0.5s0.225,0.5,0.5,0.5s0.5-0.224,0.5-0.5S38.775,42,38.5,42z"/>
	</g>
	<g>
		<rect x="30" y="27" style="fill:#919191;" width="4" height="2"/>
	</g>
	<g>
		<rect x="31" y="2" style="fill:#3B4546;" width="2" height="7"/>
	</g>
	<g>
		<path style="fill:#919191;" d="M27,20c-1.654,0-3-1.346-3-3s1.346-3,3-3s3,1.346,3,3S28.654,20,27,20z M27,16    c-0.552,0-1,0.449-1,1s0.448,1,1,1s1-0.449,1-1S27.552,16,27,16z"/>
	</g>
	<g>
		<path style="fill:#919191;" d="M37,20c-1.654,0-3-1.346-3-3s1.346-3,3-3s3,1.346,3,3S38.654,20,37,20z M37,16    c-0.552,0-1,0.449-1,1s0.448,1,1,1s1-0.449,1-1S37.552,16,37,16z"/>
	</g>
	<path style="fill:#919191;" d="M18.09,30.346l-1.736,1.042l1.877,2.253c0.089,0.106,0.198,0.192,0.321,0.254l5,2.5l0.895-1.789   l-4.812-2.406L18.09,30.346z"/>
	<path style="fill:#919191;" d="M45.91,30.346l-1.544,1.853l-4.669,2.334l0.895,1.789l4.856-2.428   c0.123-0.062,0.232-0.148,0.321-0.254l1.877-2.253L45.91,30.346z"/>
	<circle style="fill:#ABABAB;" cx="25" cy="36" r="2"/>
	<circle style="fill:#ABABAB;" cx="39" cy="36" r="2"/>
</g>
</svg>
