<?xml version="1.0" encoding="iso-8859-1"?>
<!-- Generator: Adobe Illustrator 22.1.0, SVG Export Plug-In . SVG Version: 6.00 Build 0)  -->
<svg xmlns="http://www.w3.org/2000/svg" xmlns:xlink="http://www.w3.org/1999/xlink" version="1.1" id="Layer_3" x="0px" y="0px" viewBox="0 0 64 64" style="enable-background:new 0 0 64 64;" xml:space="preserve" width="512" height="512">
<g>
	<path style="fill:#D8D2D8;" d="M43,40l13,14v4h-4c0,0-7.221-6.189-7.221-6.19l1.102,4.685C45.96,56.831,46,57.174,46,57.519v0.012   C46,59.999,43.999,62,41.531,62h0c-1.57,0-3.025-0.824-3.833-2.17L34,54h-4l-3.698,5.83C25.494,61.176,24.039,62,22.469,62h0   C20.001,62,18,59.999,18,57.531v-0.012c0-0.345,0.04-0.688,0.119-1.024l1.102-4.685L12,58H8v-4l13-14"/>
	<path style="fill:#D8D2D8;" d="M50,33l12-9v-5h-5l-6,3v2l-7.73,2.899l0,0C40.521,30.026,36.491,32,32,32s-8.521-1.974-11.27-5.101   L13,24v-2l-6-3H2v5l12,9"/>
	<path style="fill:#707070;" d="M42,28l15,9c2.761,0,5,2.238,5,5c0,2.703-2.297,5.001-5,5c-2.761,0-5-2.239-5-5l-10-2l3.881,16.495   C45.96,56.831,46,57.174,46,57.519v0.012C46,59.999,43.999,62,41.531,62h0c-1.57,0-3.025-0.824-3.833-2.17L34,54h-4l-3.698,5.83   C25.494,61.176,24.039,62,22.469,62h0C20.001,62,18,59.999,18,57.531v-0.012c0-0.345,0.04-0.688,0.119-1.024L22,40l-10,2   c0,2.761-2.238,5-5,5C4.297,47,2,44.703,2,42c0-2.761,2.239-5,5-5l15-9"/>
	<path style="fill:#B9B9B9;" d="M15,13h-2v11l7.73,2.899C23.479,30.026,27.509,32,32,32s8.521-1.974,11.27-5.101l0,0L51,24V13h-2V4   c0-1.105-0.895-2-2-2h0c-1.105,0-2,0.895-2,2v5.513l0,0C42.409,5.022,37.557,2,32,2c-5.557,0-10.409,3.022-13,7.512l0,0V4   c0-1.105-0.895-2-2-2h0c-1.105,0-2,0.895-2,2V13z"/>
	<path style="fill:#919191;" d="M36,27l11-7v-7h4v11l-7.73,2.899l0,0C40.521,30.026,36.491,32,32,32s-8.521-1.974-11.27-5.101L13,24   V13h4v7l11,7"/>
	<polygon style="fill:#ABABAB;" points="17,20 13,19 13,24 20.158,26.684 21.931,23.138  "/>
	<polygon style="fill:#ABABAB;" points="47,20 51,19 51,24 43.842,26.684 42.069,23.138  "/>
	<polygon style="fill:#EDD07A;" points="14,38 14,41.6 17,41 17,36 15.077,32.154 10.75,34.75  "/>
	<polygon style="fill:#EDD07A;" points="50,38 50,41.6 47,41 47,36 48.923,32.154 53.25,34.75  "/>
	<polyline style="fill:#B89148;" points="34,54 36.05,41.7 35,42 32,39 29,42 27.95,41.7 30,54  "/>
	<polygon style="fill:#CCAC71;" points="38,34 42,35 42,40 35,42 32,39 32,36  "/>
	<polygon style="fill:#D2A95C;" points="26,34 22,35 22,40 29,42 32,39 32,36  "/>
	<circle style="fill:#939FA5;" cx="32" cy="28" r="4"/>
	<path style="fill:#919191;" d="M30,2.134c-3.596,0.479-6.785,2.236-9.107,4.795L24,9l6-3V2.134z"/>
	<path style="fill:#919191;" d="M43.107,6.929C40.785,4.37,37.596,2.613,34,2.134V6l6,3L43.107,6.929z"/>
	<path style="fill:#EDD07A;" d="M33,19l4,2l6-3v-4l-5-2l-2.211,1.106C34.612,13.694,33.315,14,32,14h0   c-1.315,0-2.612-0.306-3.789-0.894L26,12l-5,2v4l6,3l4-2H33z"/>
	<g>
		
			<rect x="21.57" y="46.613" transform="matrix(0.9864 -0.1644 0.1644 0.9864 -8.1449 4.4091)" style="fill:#B89148;" width="2" height="9.616"/>
	</g>
	<g>
		
			<rect x="36.718" y="50.339" transform="matrix(0.1646 -0.9864 0.9864 0.1646 -16.0157 83.7693)" style="fill:#B89148;" width="9.45" height="2"/>
	</g>
	<path style="fill:#CCAC71;" d="M36.021,41.871L32,43.882l-4.021-2.011c0.011,0.067,0.271,1.624,0.407,2.44l3.168,1.584   C31.693,45.965,31.847,46,32,46s0.307-0.035,0.447-0.105l3.168-1.584L36.021,41.871z"/>
	<path style="fill:#CCAC71;" d="M35.225,46.648L32,48.798l-3.225-2.15c0.217,1.3,0.239,1.433,0.451,2.704l2.22,1.48   C31.613,50.944,31.807,51,32,51s0.387-0.056,0.555-0.168l2.22-1.48L35.225,46.648z"/>
	<polygon style="fill:#EFEFEF;" points="10.386,26.79 11.614,25.21 3.629,19 2,19 2,20.267  "/>
	<polygon style="fill:#EFEFEF;" points="52.386,25.21 53.614,26.79 62,20.267 62,19 60.371,19  "/>
	<polygon style="fill:#EDD07A;" points="20.118,48 24,48 25,44 21.059,44  "/>
	<polygon style="fill:#EDD07A;" points="42.941,44 39,44 40,48 43.882,48  "/>
	<circle style="fill:#EDD07A;" cx="23" cy="56" r="2"/>
	<circle style="fill:#EDD07A;" cx="41" cy="56" r="2"/>
</g>
</svg>
