<?xml version="1.0" encoding="iso-8859-1"?>
<!-- Generator: Adobe Illustrator 22.1.0, SVG Export Plug-In . SVG Version: 6.00 Build 0)  -->
<svg xmlns="http://www.w3.org/2000/svg" xmlns:xlink="http://www.w3.org/1999/xlink" version="1.1" id="Layer_3" x="0px" y="0px" viewBox="0 0 64 64" style="enable-background:new 0 0 64 64;" xml:space="preserve" width="512" height="512">
<g>
	<polyline style="fill:#566164;" points="21,50 17,49 15,55 19,56  "/>
	<path style="fill:#3B4546;" d="M42,28l15,9c2.761,0,5,2.238,5,5c0,2.703-2.297,5.001-5,5c-2.761,0-5-2.239-5-5l-10-2l3.881,16.495   C45.96,56.831,46,57.174,46,57.519v0.012C46,59.999,43.999,62,41.531,62h0c-1.57,0-3.025-0.824-3.833-2.17L36,57h-8l-1.698,2.83   C25.494,61.176,24.039,62,22.469,62h0C20.001,62,18,59.999,18,57.531v-0.012c0-0.345,0.04-0.688,0.119-1.024L22,40l-10,2   c0,2.761-2.238,5-5,5C4.297,47,2,44.703,2,42c0-2.761,2.239-5,5-5l15-9"/>
	<path style="fill:#4C4C4C;" d="M42,28l15,9c2.761,0,5,2.238,5,5c0,2.703-2.297,5.001-5,5c-2.761,0-5-2.239-5-5l-10-2l3.881,16.495   C45.96,56.831,46,57.174,46,57.519v0.012C46,59.999,43.999,62,41.531,62h0c-1.57,0-3.025-0.824-3.833-2.17L36,57h-8l-1.698,2.83   C25.494,61.176,24.039,62,22.469,62h0C20.001,62,18,59.999,18,57.531v-0.012c0-0.345,0.04-0.688,0.119-1.024L22,40l-10,2   c0,2.761-2.238,5-5,5C4.297,47,2,44.703,2,42c0-2.761,2.239-5,5-5l15-9"/>
	<path style="fill:#B9B9B9;" d="M40,30c0,0,2,10,2,10l10,2c0,2.761,2.238,5,5,5c2.703,0,5.001-2.297,5-5c0-2.761-2.239-5-5-5l-15-9"/>
	<path style="fill:#D8C4A9;" d="M7,37c-2.761,0-5,2.238-5,5C2,44.703,4.297,47,7,47c2.456,0,4.488-1.774,4.91-4.108L7,37z"/>
	<path style="fill:#D8C4A9;" d="M57,37L57,37l-4.91,5.892C52.512,45.226,54.544,47,57,47c2.703,0,5.001-2.297,5-5   C62,39.238,59.761,37,57,37z"/>
	<polygon style="fill:#CA5057;" points="44.059,29.235 45,33 44,37 48,35 51,39 52,34  "/>
	<path style="fill:#383838;" d="M37.698,59.83c0.808,1.346,2.263,2.17,3.833,2.17C43.999,62,46,59.999,46,57.531v-0.012   c0-0.345-0.04-0.688-0.119-1.024l-0.631-2.683l-7.698,5.774L37.698,59.83z"/>
	<path style="fill:#383838;" d="M18.691,54.065l-0.572,2.43C18.04,56.831,18,57.174,18,57.519v0.012C18,59.999,20.001,62,22.469,62   h0c1.57,0,3.025-0.824,3.832-2.17l0.138-0.23L18.691,54.065z"/>
	<path style="fill:#383838;" d="M36.922,37.453l-0.859-6.01c1.385-0.389,2.69-0.972,3.882-1.718C39.945,29.725,42,40,42,40   l0.227,0.965c0,0-10.226,1.035-10.226,1.035L21.77,40.989l-0.002-0.001L22,40l2.055-10.275c1.192,0.746,2.496,1.329,3.882,1.717   l-0.859,6.01L32,38L36.922,37.453z"/>
	<path style="fill:#5A4836;" d="M17,31l-1-5l-6,3l3-8v-7.05c0-3.169,1.259-6.209,3.5-8.45l0,0C18.741,3.259,21.78,2,24.95,2H30l2,2   l2-2h5.05c3.169,0,6.209,1.259,8.45,3.5l0,0c2.241,2.241,3.5,5.28,3.5,8.45V21l3,8l-6-3l-1,5l-4.888-2.933l0.006,0.007   C45.118,25.331,47,21.385,47,17l0-3l-2-5h-8l-5,3l-5-3h-8l-2,5l0,3c0,4.384,1.881,8.329,4.88,11.072C21.88,28.072,17,31,17,31z"/>
	<path style="fill:#D8C4A9;" d="M47,14l-2-5h-8l-5,3l-5-3h-8l-2,5l0,3c0,8.284,6.716,15,15,15s15-6.716,15-15L47,14z"/>
	<path style="fill:#3B4546;" d="M46.657,20.171l-2.453,1.227C43.412,21.794,42.539,22,41.654,22H41   c-1.295,0-2.551-0.441-3.562-1.249l-1.877-1.501C34.551,18.441,33.295,18,32,18s-2.551,0.441-3.562,1.249l-1.877,1.501   C25.551,21.559,24.295,22,23,22h-0.654c-0.885,0-1.758-0.206-2.55-0.602l-2.453-1.227C18.799,26.931,24.805,32,32,32   C39.195,32,45.201,26.931,46.657,20.171z"/>
	<g>
		<path style="fill:#383838;" d="M21.146,55.819l-1.934-1.381l3.128-1.251l2.894-4.341l1.664,1.109l-3.066,4.6    c-0.112,0.168-0.273,0.299-0.46,0.374L21.146,55.819z"/>
	</g>
	<path style="fill:#2B2B2B;" d="M33,41.899v-4.01L32,38l-1-0.111v4.012L32.001,42C32.001,42,32.824,41.917,33,41.899z"/>
	<path style="fill:#2B2B2B;" d="M36.922,37.453L35,37.667v4.03c0.829-0.084,1-0.101,2-0.202V37h-0.143L36.922,37.453z"/>
	<path style="fill:#383838;" d="M23.492,32.538l-5.15,3.089l-2.397-3.995l-1.715,1.029l1.664,2.773l-7.199,3.6l1.315,1.579   l6.916-3.458l0.216,0.36C17.33,37.827,17.661,38,18.001,38c0.175,0,0.353-0.046,0.514-0.143l4.448-2.669L23.492,32.538z"/>
	<g>
		<path style="fill:#B8A490;" d="M25.196,13.02L25.196,13.02l-5-1l-0.393,1.961l2.612,0.522C22.158,14.945,22,15.452,22,16    c0,1.654,1.346,3,3,3s3-1.346,3-3C28,14.413,26.758,13.123,25.196,13.02z M25,17c-0.551,0-1-0.448-1-1s0.449-1,1-1s1,0.448,1,1    S25.551,17,25,17z"/>
		<path style="fill:#B8A490;" d="M44.196,13.98l-0.393-1.961l-5,1l0,0C37.242,13.123,36,14.413,36,16c0,1.654,1.346,3,3,3    s3-1.346,3-3c0-0.548-0.158-1.055-0.416-1.497L44.196,13.98z M39,17c-0.551,0-1-0.448-1-1s0.449-1,1-1s1,0.448,1,1    S39.551,17,39,17z"/>
	</g>
	<path style="fill:#566164;" d="M26,30.74V26c0-0.266-0.105-0.52-0.293-0.707L24,23.586v-1.678C23.671,21.967,23.337,22,23,22   h-0.654c-0.116,0-0.231-0.013-0.346-0.02V24c0,0.266,0.105,0.52,0.293,0.707L24,26.414v3.259C24.637,30.076,25.303,30.435,26,30.74   z"/>
	<path style="fill:#566164;" d="M41.654,22H41c-0.337,0-0.671-0.033-1-0.092v1.678l-1.707,1.707C38.105,25.48,38,25.734,38,26v4.74   c0.697-0.305,1.363-0.663,2-1.067v-3.259l1.707-1.707C41.895,24.52,42,24.266,42,24v-2.02C41.885,21.987,41.77,22,41.654,22z"/>
	<path style="fill:#566164;" d="M36,27.697v-2.461l2.041-4.082c-0.206-0.126-0.413-0.252-0.603-0.404l-1.023-0.818L34.882,23h-5.764   l-1.534-3.068l-1.023,0.818c-0.19,0.152-0.397,0.278-0.603,0.404L28,25.236v2.461l-2.022,3.033c0.625,0.275,1.271,0.51,1.938,0.699   L29.535,29h4.93l1.62,2.429c0.667-0.189,1.312-0.424,1.938-0.699L36,27.697z M34,27h-4v-2h4V27z"/>
	<polygon style="fill:#383838;" points="44.346,49.971 43.423,46.048 32,47 20.577,46.048 19.654,49.971 32,51  "/>
	<polygon style="fill:#2B2B2B;" points="28,50.667 30,50.833 30,46.833 28,46.667  "/>
	<polygon style="fill:#2B2B2B;" points="34,50.833 36,50.667 36,46.667 34,46.833  "/>
	<polygon style="fill:#2B2B2B;" points="24,50.333 26,50.5 26,46.5 24,46.333  "/>
	<polygon style="fill:#2B2B2B;" points="38,50.5 40,50.333 40,46.333 38,46.5  "/>
</g>
</svg>
